<?xml version="1.0" encoding="UTF-8" standalone="no"?>
<!-- Created with Inkscape (http://www.inkscape.org/) -->

<svg
   xmlns:dc="http://purl.org/dc/elements/1.1/"
   xmlns:cc="http://creativecommons.org/ns#"
   xmlns:rdf="http://www.w3.org/1999/02/22-rdf-syntax-ns#"
   xmlns:svg="http://www.w3.org/2000/svg"
   xmlns="http://www.w3.org/2000/svg"
   xmlns:sodipodi="http://sodipodi.sourceforge.net/DTD/sodipodi-0.dtd"
   xmlns:inkscape="http://www.inkscape.org/namespaces/inkscape"
   width="60.040005mm"
   height="16.013mm"
   viewBox="0 0 60.040005 16.013"
   version="1.1"
   id="svg3854"
   inkscape:version="0.92.4 (5da689c313, 2019-01-14)"
   sodipodi:docname="ohama2.svg">
  <defs
     id="defs3848" />
  <sodipodi:namedview
     id="base"
     pagecolor="#ffffff"
     bordercolor="#666666"
     borderopacity="1.0"
     inkscape:pageopacity="0.0"
     inkscape:pageshadow="2"
     inkscape:zoom="0.35"
     inkscape:cx="-366.70754"
     inkscape:cy="-121.41091"
     inkscape:document-units="mm"
     inkscape:current-layer="layer1"
     showgrid="false"
     inkscape:showpageshadow="false"
     showborder="false"
     fit-margin-top="0"
     fit-margin-left="0"
     fit-margin-right="0"
     fit-margin-bottom="0"
     inkscape:window-width="1920"
     inkscape:window-height="1017"
     inkscape:window-x="-8"
     inkscape:window-y="-8"
     inkscape:window-maximized="1" />
  <metadata
     id="metadata3851">
    <rdf:RDF>
      <cc:Work
         rdf:about="">
        <dc:format>image/svg+xml</dc:format>
        <dc:type
           rdf:resource="http://purl.org/dc/dcmitype/StillImage" />
        <dc:title></dc:title>
      </cc:Work>
    </rdf:RDF>
  </metadata>
  <g
     inkscape:label="Layer 1"
     inkscape:groupmode="layer"
     id="layer1"
     transform="translate(-76.991966,-100.69703)">
    <g
       aria-label="ohama"
       transform="matrix(0.43955971,0,0,0.49769822,-3.1933148,-95.718947)"
       style="font-style:normal;font-variant:normal;font-weight:normal;font-stretch:normal;font-size:40px;line-height:1.25;font-family:'The Brandy';-inkscape-font-specification:'The Brandy, Normal';font-variant-ligatures:normal;font-variant-caps:normal;font-variant-numeric:normal;font-feature-settings:normal;text-align:start;letter-spacing:0px;word-spacing:0px;writing-mode:lr-tb;text-anchor:start;fill:#000000;fill-opacity:1;stroke:none"
       id="flowRoot3856">
      <path
         d="m 197.21742,423.5718 c 3.8,-0.44 7.28,-3.08 10.56,-6.84 l -2.08,-0.84 c -1.24,1.68 -4.72,4.68 -6.76,4.96 4.88,-10.04 -3.04,-14.36 -7.84,-10.88 -2.36,-1.12 -5.92,0.24 -7.88,5.48 -1.48,4.04 -1.28,9 3.96,10.72 2.8,0.92 7.88,0.04 10.04,-2.6 z m -5.76,-9.4 c 2.8,-5.28 7.28,-2.08 1.28,6.48 -2.2,-0.24 -2.48,-4.16 -1.28,-6.48 z m -3.04,9.44 c -1.12,-0.64 -0.88,-3.36 -0.16,-5.12 0.08,1.76 1.36,3.6 2.76,4.32 -0.92,1.28 -1.96,1.16 -2.6,0.8 z"
         id="path3864"
         inkscape:connector-curvature="0" />
      <path
         d="m 219.03555,426.7318 c 5.12,1.08 12.84,-7.76 14.32,-9.96 l -2.28,-0.8 c -0.68,0.96 -6.76,7.32 -7.8,6.12 -1,-1.2 5.88,-11.72 0.6,-12.88 -2.8,-0.6 -6.68,1.4 -8.92,3.32 0.44,-1.2 1.08,-3 1.8,-4.2 14.88,-2.56 13.96,-13.04 7.72,-13.64 -11.6,-1.12 -18.28,19.92 -20.8,26.92 -0.6,1.64 -0.36,4.24 1.6,4.88 0.96,0.32 2.52,0.56 4.88,-0.24 0.48,-3.28 1.68,-6.76 3.12,-9.2 1.44,-1.72 4.28,-3.8 5.36,-3.96 2.32,-0.32 -6.04,11.76 -0.12,13.52 0.16,0.04 0.32,0.08 0.52,0.12 z m 4.88,-24.92 c -1.52,2.16 -6.2,3.44 -6.2,3.44 4.72,-8.64 7.6,-5.36 6.2,-3.44 z"
         id="path3866"
         inkscape:connector-curvature="0" />
      <path
         d="m 242.14805,420.9718 c -0.32,2.76 0.08,5.04 2.16,5.64 3.96,1.16 12.6,-7.56 14.08,-9.84 l -2.24,-0.8 c -1.32,1.8 -5.72,5.16 -6.92,5.36 -2.8,0.36 2.56,-10.56 3.04,-11.84 -0.4,-1.96 -5.12,-2.92 -6.6,0 -0.16,0.48 -0.44,1.16 -0.76,2 -4.28,-5.56 -10.92,-1.68 -13.56,3.84 -4.76,9.88 2.8,15.84 10.8,5.64 z m -4.64,-1.52 c -0.96,-3.04 3.76,-9.72 6.72,-6.16 -0.44,1.2 -0.88,2.52 -1.28,3.88 -1.88,1.88 -4.8,4.2 -5.44,2.28 z"
         id="path3868"
         inkscape:connector-curvature="0" />
      <path
         d="m 291.70617,415.9718 c -0.68,0.96 -6.76,7.32 -7.8,6.12 -1,-1.2 5.92,-11.8 0.44,-12.88 -2.64,-0.48 -6.04,1.2 -8.28,3 0.04,-1.56 -0.44,-2.64 -2.04,-3 -2.76,-0.6 -6.68,1.4 -8.92,3.32 0.44,-1.16 0.4,-1.32 1.36,-2.52 -0.76,-1.96 -5.84,-2.56 -7.8,0 -1.76,4.88 -3.68,7.96 -4.84,11.6 -0.52,1.68 -0.36,4.24 1.6,4.88 1,0.32 2.56,0.56 4.88,-0.24 0.48,-3.28 1.68,-6.76 3.12,-9.2 1.44,-1.72 4.28,-3.8 5.36,-3.96 2.32,-0.32 -6,11.76 -0.08,13.52 0.84,0.28 2.56,0.12 3.6,-0.48 0.04,-2.96 1.88,-7 2.96,-10.4 1.48,-1.32 3.24,-2.52 4.08,-2.64 2.32,-0.32 -6.04,11.76 -0.12,13.52 5.12,1.68 13.24,-7.56 14.72,-9.84 z"
         id="path3870"
         inkscape:connector-curvature="0" />
      <path
         d="m 302.77305,420.9718 c -0.32,2.76 0.08,5.04 2.16,5.64 3.96,1.16 12.6,-7.56 14.08,-9.84 l -2.24,-0.8 c -1.32,1.8 -5.72,5.16 -6.92,5.36 -2.8,0.36 2.56,-10.56 3.04,-11.84 -0.4,-1.96 -5.12,-2.92 -6.6,0 -0.16,0.48 -0.44,1.16 -0.76,2 -4.28,-5.56 -10.92,-1.68 -13.56,3.84 -4.76,9.88 2.8,15.84 10.8,5.64 z m -4.64,-1.52 c -0.96,-3.04 3.76,-9.72 6.72,-6.16 -0.44,1.2 -0.88,2.52 -1.28,3.88 -1.88,1.88 -4.8,4.2 -5.44,2.28 z"
         id="path3872"
         inkscape:connector-curvature="0" />
    </g>
  </g>
</svg>
