<svg>
    <g
       aria-label="ohama"
       transform="matrix(0.26458333,0,0,0.26458333,85.623098,98.859332)"
       style="font-style:normal;font-variant:normal;font-weight:normal;font-stretch:normal;font-size:85.33333588px;line-height:1.25;font-family:'The Brandy';-inkscape-font-specification:'The Brandy, Normal';font-variant-ligatures:normal;font-variant-caps:normal;font-variant-numeric:normal;font-feature-settings:normal;text-align:start;letter-spacing:0px;word-spacing:0px;writing-mode:lr-tb;text-anchor:start;fill:#000000;fill-opacity:1;stroke:none"
       id="flowRoot3775">
      <path
         d="m -393.78135,3.6246531 c 8.10667,-0.9386667 15.53067,-6.5706669 22.528,-14.5920001 l -4.43733,-1.792 c -2.64533,3.5839997 -10.06933,9.9839999 -14.42133,10.5813333 10.41066,-21.4186673 -6.48534,-30.6346673 -16.72534,-23.2106673 -5.03467,-2.389333 -12.62933,0.512 -16.81067,11.690667 -3.15733,8.6186668 -2.73066,19.2000005 8.448,22.8693339 5.97334,1.9626671 16.81067,0.085333 21.41867,-5.5466668 z m -12.288,-20.0533341 c 5.97334,-11.264 15.53067,-4.437333 2.73067,13.8240006 -4.69334,-0.512 -5.29067,-8.8746666 -2.73067,-13.8240006 z m -6.48533,20.1386674 c -2.38934,-1.3653333 -1.87734,-7.1680002 -0.34134,-10.9226669 0.17067,3.7546667 2.90134,7.68000018 5.888,9.2160002 -1.96266,2.7306668 -4.18133,2.4746668 -5.54666,1.7066667 z"
         id="path3783"
         inkscape:connector-curvature="0" />
      <path
         d="m -347.23601,10.365987 c 10.92266,2.304 27.392,-16.5546675 30.54933,-21.248001 l -4.864,-1.706667 c -1.45067,2.048 -14.42133,15.6160008 -16.64,13.05600068 -2.13333,-2.56000008 12.544,-25.00266768 1.28,-27.47733368 -5.97333,-1.280001 -14.25067,2.986666 -19.02933,7.082666 0.93866,-2.56 2.304,-6.4 3.84,-8.96 31.744,-5.461333 29.78133,-27.818667 16.46933,-29.098667 -24.74667,-2.389334 -38.99733,42.496001 -44.37333,57.42933465 -1.28,3.49866675 -0.768,9.04533365 3.41333,10.41066695 2.048,0.6826664 5.376,1.1946664 10.41067,-0.512 1.024,-6.9973335 3.584,-14.4213338 6.656,-19.6266676 3.072,-3.669333 9.13066,-8.106667 11.43466,-8.448 4.94934,-0.682667 -12.88533,25.0880009 -0.256,28.842668 0.34134,0.08533 0.68267,0.170666 1.10934,0.256 z m 10.41066,-53.162669 c -3.24266,4.608001 -13.22666,7.338667 -13.22666,7.338667 10.06933,-18.432 16.21333,-11.434667 13.22666,-7.338667 z"
         id="path3785"
         inkscape:connector-curvature="0" />
      <path
         d="m -297.92934,-1.9220137 c -0.68267,5.8880002 0.17066,10.7520003 4.608,12.0320007 8.448,2.474666 26.88,-16.1280008 30.03733,-20.992001 l -4.77867,-1.706667 c -2.816,3.8400004 -12.20266,11.0080006 -14.76266,11.4346673 -5.97334,0.76800002 5.46133,-22.5280003 6.48533,-25.2586673 -0.85333,-4.181334 -10.92267,-6.229334 -14.08,0 -0.34133,1.024 -0.93867,2.474667 -1.62133,4.266667 -9.13067,-11.861334 -23.296,-3.584 -28.928,8.192 -10.15467,21.0773339 5.97333,33.792001 23.04,12.0320003 z m -9.89867,-3.2426668 c -2.048,-6.4853335 8.02133,-20.7360005 14.336,-13.1413335 -0.93867,2.56 -1.87733,5.376 -2.73067,8.277333 -4.01066,4.0106672 -10.24,8.9600006 -11.60533,4.8640005 z"
         id="path3787"
         inkscape:connector-curvature="0" />
      <path
         d="m -192.20534,-12.588681 c -1.45067,2.048 -14.42134,15.6160008 -16.64,13.05600068 -2.13334,-2.56000008 12.62933,-25.17333368 0.93866,-27.47733368 -5.632,-1.024001 -12.88533,2.56 -17.664,6.4 0.0853,-3.328 -0.93866,-5.632 -4.352,-6.4 -5.888,-1.280001 -14.25066,2.986666 -19.02933,7.082666 0.93867,-2.474666 0.85333,-2.816 2.90133,-5.376 -1.62133,-4.181333 -12.45866,-5.461333 -16.64,0 -3.75466,10.410667 -7.85066,16.9813341 -10.32533,24.74666765 -1.10933,3.58400015 -0.768,9.04533365 3.41333,10.41066695 2.13334,0.6826664 5.46134,1.1946664 10.41067,-0.512 1.024,-6.9973335 3.584,-14.4213338 6.656,-19.6266676 3.072,-3.669333 9.13067,-8.106667 11.43467,-8.448 4.94933,-0.682667 -12.8,25.0880009 -0.17067,28.842668 1.792,0.597333 5.46133,0.256 7.68,-1.0240004 0.0853,-6.3146669 4.01067,-14.9333338 6.31467,-22.1866676 3.15733,-2.816 6.912,-5.376 8.704,-5.632 4.94933,-0.682667 -12.88534,25.0880009 -0.256,28.842668 10.92266,3.584 28.24533,-16.1280008 31.40267,-20.992001 z"
         id="path3789"
         inkscape:connector-curvature="0" />
      <path
         d="m -168.59601,-1.9220137 c -0.68267,5.8880002 0.17066,10.7520003 4.608,12.0320007 8.448,2.474666 26.88,-16.1280008 30.03733,-20.992001 l -4.77867,-1.706667 c -2.816,3.8400004 -12.20266,11.0080006 -14.76266,11.4346673 -5.97334,0.76800002 5.46133,-22.5280003 6.48533,-25.2586673 -0.85333,-4.181334 -10.92267,-6.229334 -14.08,0 -0.34133,1.024 -0.93867,2.474667 -1.62133,4.266667 -9.13067,-11.861334 -23.29601,-3.584 -28.92801,8.192 -10.15466,21.0773339 5.97334,33.792001 23.04001,12.0320003 z m -9.89867,-3.2426668 c -2.048,-6.4853335 8.02133,-20.7360005 14.336,-13.1413335 -0.93867,2.56 -1.87733,5.376 -2.73067,8.277333 -4.01066,4.0106672 -10.24,8.9600006 -11.60533,4.8640005 z"
         id="path3791"
         inkscape:connector-curvature="0" />
    </g>
</svg>
