<?xml version="1.0" encoding="UTF-8"?>
<svg data-name="Ebene 1" viewBox="0 0 366.85 492.96" xmlns="http://www.w3.org/2000/svg">
 <defs>
  <style>.cls-1{fill:#fff;}.cls-2{fill:#c6601c;}.cls-3{fill:#050505;}.cls-4{fill:none;stroke:#000;stroke-miterlimit:10;}</style>
 </defs>
 <g data-name="&lt;Gruppe&gt;">
  <path class="cls-1" transform="translate(-.23)" d="M329.41,155.79c-4.83.53-6,.37-6-.81,0-1,1.62-1.66,4.94-2.08,2.72-.34,6-.83,7.28-1.09,2.55-.51,3.11.75,1,2.34C336,154.69,332.7,155.43,329.41,155.79Z"/>
  <path class="cls-1" transform="translate(-.23)" d="m329.88 157.43c2.7 0 3 0.23 1.87 1.51-1.38 1.62-8.32 2.13-8.32 0.62 0-1.24 2.68-2.13 6.45-2.13z"/>
  <path class="cls-1" transform="translate(-.23)" d="m322.59 164.43a3.2 3.2 0 0 1 1.82 -1.77c0.78-0.25 1.17 0.13 0.91 0.88a3.2 3.2 0 0 1 -1.82 1.77c-0.78 0.25-1.17-0.13-0.91-0.88z"/>
  <path class="cls-1" transform="translate(-.23)" d="m318.23 162.92c0 1-1.67 3.36-3.71 5.23-3.62 3.31-5.62 4.09-7 2.72s-0.63-2.18 3.72-4.34a21.63 21.63 0 0 0 5.72 -3.82c1.15-1.48 1.27-1.46 1.27 0.21z"/>
  <path class="cls-1" transform="translate(-.23)" d="m304.66 163.4c-2.93-0.15-4.1-1.12-4.1-3.39s0.41-2.3 7.28-2.34c7.23 0 9.55 1 4.78 2.17a16.39 16.39 0 0 1 -5.72 0c-3.34-0.65-4.14 0.35-2 2.45 0.99 0.92 0.94 1.17-0.24 1.11z"/>
  <path class="cls-1" transform="translate(-.23)" d="M304.33,174c1.77.67,1.67.95-1.17,3.17-3.45,2.69-7.35,3.1-10.14,1.05-2.44-1.8-2.29-2.63.44-2.63a21.26,21.26,0,0,0,5.59-1.17A9.53,9.53,0,0,1,304.33,174Z"/>
  <path class="cls-1" transform="translate(-.23)" d="M299.7,165.18c4.24.82,5.8,3,3.64,5.11-2,1.94-13.86,2.92-16.28,1.35-1.26-.83-1.08-1.18,1-2.06s1.93-1-1.73-.49c-4.05.54-4.4.39-6-2.67-2.18-4.25-2.23-4.15,1.91-3.8,2,.16,3.93,0,4.34-.43s-1.44-.73-4.11-.73c-4.48,0-4.85-.19-4.85-2.52,0-1.72.58-2.52,1.82-2.53,1.5,0,1.55-.18.33-.93-2.35-1.44.57-4.1,4.51-4.1,4.57,0,7.05,2,10,8C296.25,163.44,297.47,164.75,299.7,165.18Z"/>
  <path class="cls-1" transform="translate(-.23)" d="m276.76 169.16c1.51 1.76 1.79 1.52-6.36 5.36-3.71 1.75-8.64 4.25-10.95 5.56l-4.19 2.36-3.95-2.86-4-2.86 3-1.44c3.46-1.69 14.75-5.26 20.92-6.6 3.35-0.68 4.58-0.62 5.53 0.48z"/>
  <path class="cls-1" transform="translate(-.23)" d="m265.4 163.53c11.85-0.07 11.34 2-1.24 5a112.7 112.7 0 0 0 -11.09 3.58c-7.28 2.78-6.7 2.66-8.34 1.66-1.45-0.9-3.74-6.32-3-7.06 1.19-1.11 16.14-3.13 23.67-3.18z"/>
  <path class="cls-1" transform="translate(-.23)" d="M271.24,158.68c.26,1.29-1.05,1.72-6.76,2.23a93.08,93.08,0,0,0-10.71,1.51c-2,.49-5.63,1.2-8.06,1.57-4,.61-4.51.45-5.36-1.68-.7-1.76-1.07-2-1.47-.85-.3.84-.7,2.06-.89,2.71-.37,1.29-3.25.14-5.78-2.3a8.55,8.55,0,0,0-2.6-1.69c-2.26-.78,0-2,5.16-2.79,8.75-1.34,29.81-2.1,33-1.19C269.52,156.68,271.07,157.8,271.24,158.68Z"/>
  <path class="cls-1" transform="translate(-.23)" d="M326.3,151c-2.79.45-4,.24-4.38-.75-.27-.75-1.27-3.41-2.21-5.9-1.82-4.84-2-13.29-.34-16.3a10.74,10.74,0,0,1,3.83-3.29,34.1,34.1,0,0,0,6.05-4.46c3.07-2.84,5-3.55,8.91-3.28.95.06,3.23,2.49,5.07,5.41s4,5.65,4.77,6.09c2,1.12,1.79,3.78-.71,9.91-3.61,8.89-5.39,10.62-11.62,11.33C332.66,150.08,328.44,150.64,326.3,151Z"/>
  <path class="cls-2" transform="translate(-.23)" d="M326.57,187.22a81.27,81.27,0,0,0,2.06-13.41c0-4.9,1.53-5,2.63-.11.46,2,.27,3.4-.55,3.89s-1.15,3.36-.89,9.36c.22,5,0,8.36-.57,8-1.23-.74-.13,9.53,1.87,17.4C332,215.7,333,220,333.37,222l.72,3.52-2.36-2-2.35-2-.73,0A55.21,55.21,0,0,0,326.54,210C324,202.08,324,198.6,326.57,187.22Z"/>
  <path class="cls-2" transform="translate(-.23)" d="M325.44,63.69c-.39,0-1.09-1.75-1.72-3.93l.75-.18c.11.16.61-.23,1.73-1.18,3.13-2.66,3.63-2.15,1.7,1.76C327,62.1,325.84,63.69,325.44,63.69Z"/>
  <path class="cls-2" transform="translate(-.23)" d="m314 127.19c-1.41-4.72-1.1-10.08 0.6-10.08a1.55 1.55 0 0 1 1.56 1.51c0 0.84 0.49 1.52 1.09 1.52 1.19 0 3.49-1.09 5.53-2.47l2.56 1.4c-1.06 0.82-2.16 1.61-3.18 2.31-3.27 2.23-6.28 5-6.68 6.19-0.71 2.08-0.75 2.06-1.48-0.38z"/>
  <path class="cls-2" transform="translate(-.23)" d="M308.9,283.22a42,42,0,0,1,2.15-6.05c4.1-10.06,5-13.41,6.22-24a102.23,102.23,0,0,1,2.62-14.61l1.36-4,.05,4.29c0,2.35.47,4.28,1,4.28,1.44,0,3.24-8.35,3.24-15,0-5.69,1.26-8.74,2.43-5.92.58,1.39.78.82.71-.72l.73,0L330,225c2.19,12.1,2.2,12.7.21,11.11-1.74-1.4-1.82-1.29-1.17,1.6.51,2.26.24,3.47-1,4.47-2.75,2.21-6.6,10.85-9.28,20.84a97.32,97.32,0,0,1-4.15,12.6C312.85,279.18,308.94,284.38,308.9,283.22Z"/>
  <path class="cls-3" transform="translate(-.23)" d="M298.73,419.94c5,.77,8.22,3.3,11.7,9.15,3,5.09,4.11,10,2.71,12.31-.88,1.45-1.11.93-1.25-2.74l-.17-4.53-.69,4.74c-.93,6.47-1.91,7-1.91,1,0-4.74-3.25-13.11-4.12-10.62a5,5,0,0,0,.69,3.21,15.93,15.93,0,0,1,1,6.36l-.1,4.35-1.4-4.54-1.41-4.53.21,5.51c.17,4.54-.11,5.57-1.62,5.87-2.1.41-1.93.78-5.41-12.13C293.23,419.49,293.28,419.09,298.73,419.94Z"/>
  <path class="cls-3" transform="translate(-.23)" d="M259.88,377.44c-.71-8.44-1-15.65-.61-16s1.28-.19,2,.39c1,.8,2.59-.62,6.52-5.83,2.86-3.79,5.76-7.12,6.44-7.41s2.39.37,3.8,1.45a12.82,12.82,0,0,0,3.14,2c1.09,0,5.86-5.53,5.86-6.8a1.06,1.06,0,0,1,.28-.71,1.82,1.82,0,0,1,1.37-.56c.91,0,2.58-1,3.71-2.27l2.05-2.26-.56,8.56c-.31,4.71-.84,14.24-1.17,21.17s-1.3,18.05-2.17,24.71c-1.81,13.88-1.43,30.26.91,39.3,2.56,9.92,5.19,16.91,7.75,20.56,2.68,3.83,2.58,4.11-2.11,5.91-3,1.14-2.63,1.2,3.46.57,8.89-.91,20.61-.92,24.1,0,4.91,1.25,7.48,6.11,7.55,14.24.05,5.61-.38,7.72-2,9.87-1.14,1.51-2.36,2.76-2.71,2.77s-.39-2.3-.11-5.15c.37-3.73.18-5-.67-4.48a3.8,3.8,0,0,0-1.2,2.92c0,3.09-1.12,6.75-2,6.75-.42,0-.54-3.35-.27-7.43.29-4.44,0-8.19-.65-9.33-.89-1.49-1.14-.24-1.17,5.86,0,4.26-.5,8-1.07,8.38s-1-1.06-1-3.64c0-5.44-1-4.54-1.9,1.77-.64,4.35-1,4.89-3.31,4.89-2,0-2.5-.43-2.18-2a82.45,82.45,0,0,0,.52-9.28c.09-5.92-.25-7.61-1.85-9.08-1.9-1.73-1.94-1.72-1.11.22,1.4,3.25,1.79,13.32.6,15.31-.92,1.52-1.11,1.19-1.13-1.95,0-2.08-.5-3.78-1.07-3.78s-1,2.21-1,4.93c0,3.57-.46,5.1-1.65,5.54-7,2.63-15.44-1.55-16.61-8.27-1.05-6-1.56-7.24-3.1-7.24-.87,0-1.21.61-.86,1.51.77,1.92-.62,1.93-3.45,0-1.55-1.06-2.43-3.08-2.95-6.81-.4-2.91-1.09-5.75-1.52-6.31a30.36,30.36,0,0,1-2.12-6.55,46.21,46.21,0,0,0-2.16-7,25.53,25.53,0,0,1-1.55-5.55c-.66-3.64-.8-3.79-1.44-1.51l-.7,2.52-2.13-3.34c-2.18-3.41-2.41-5.11-4.51-33.89C261.56,398.27,260.59,385.89,259.88,377.44Z"/>
  <path class="cls-3" transform="translate(-.23)" d="M258.21,440.49l-11.2-.75-8.32-.57-.52-8.07c-.47-7.32-.31-8.27,1.77-10.33s3.38-2.27,10-2.27h7.73l.6,3.28c.33,1.8.88,5.77,1.22,8.82s.84,6.56,1.1,7.81C261,440.36,260.68,440.65,258.21,440.49Z"/>
  <path class="cls-2" transform="translate(-.23)" d="m244.22 410.61c-8.42 8.38-8.32 8.43-10.7-5.71-0.84-5-2-11.53-2.56-14.53s-1.35-9.89-1.74-15.3c-0.66-9.39-0.57-10.05 2-14.31 2.32-3.84 11.33-15.34 13.2-16.85a53.67 53.67 0 0 0 3.76 -5.83l3.13-5.32 1.23 9.36c0.67 5.14 1.69 16.84 2.26 26s1.28 18 1.57 19.73c1 5.77-3.43 14.07-12.15 22.76z"/>
  <path transform="translate(-.23)" d="m268.78 112.83c0.62-1.56-0.11-2.27-1.72-1.68a1.25 1.25 0 0 0 -0.77 1.68c0.62 1.56 1.87 1.56 2.49 0zm-16.43-5.22c0.48-1.22 0.26-1.23 3.13 0.16 1.8 0.87 3.33 1 6.18 0.65 9.3-1.25 11.26-0.36 15 6.81 3.51 6.73 3 9.53-0.83 4.76-1.77-2.2-2.07-2.3-6.22-2.1-4.85 0.23-5.59-0.1-13.11-5.82-2.85-2.17-4.39-3.84-4.15-4.46z"/>
  <path class="cls-1" transform="translate(-.23)" d="M220.94,130.76c-.7-5.68-.64-5.92,1-4.29,2.62,2.55,5.15,2.33,3.7-.32-.63-1.12-1-4.37-.82-7.22l.31-5.17,6,5.31c3.29,2.91,6,4.89,6,4.39a3.93,3.93,0,0,0-1.25-2.11c-1.78-1.73-.72-1.53,7.07,1.31,8.1,3,9.5,3.11,7.57.86-1.25-1.46-1.17-1.59.66-1.07,1.13.33,4,1.07,6.29,1.65,4.88,1.22,8.29,4.34,9.38,8.57a28.11,28.11,0,0,0,2,5.25,10.11,10.11,0,0,1,.77,5.32l-.46,3-3.37-2.49c-3.29-2.43-7.84-3.36-7.84-1.6,0,.49,1.28,1.4,2.85,2,2.54,1,7.54,6.64,7.54,8.48,0,.38-4.32.71-9.61.72a177.87,177.87,0,0,0-20,1.5c-5.72.8-11.1,1.46-12,1.46-2.66,0-5.35-7-5.2-13.63A100.45,100.45,0,0,0,220.94,130.76Z"/>
  <path class="cls-1" transform="translate(-.23)" d="m212.46 173.33l2.37-5.82c3.3-8.16 4.45-8.59 11.47-4.28 4.69 2.88 5.3 4.53 1.91 5.15a39.41 39.41 0 0 0 -6.41 2.29c-8.13 3.56-9.91 4.06-9.34 2.66z"/>
  <path class="cls-1" transform="translate(-.23)" d="M205.75,191.49c-1.77,4.33-.63-1,1.44-6.68,2.14-5.9,2.72-6.6,7.55-9a125.08,125.08,0,0,1,12-4.87c7.38-2.5,8.21-2.25,11.3,3.34,1.83,3.32,1.46,4.15-2.57,5.78-3.35,1.36-14.27,8.11-19.57,12.1-1.1.83-1.72,1.79-1.37,2.13s2.38-.68,4.51-2.26A113.41,113.41,0,0,1,235.82,182l5.44-2.81,2.13,2.22c2.7,2.8,4.62,3,3.13.27-1.58-2.87-1.33-3.25,1.25-1.84,4.7,2.57,5,4,1.47,6.6-1.8,1.3-4,2.76-4.82,3.23s-1.26,1.15-.91,1.49,2.81-.78,5.44-2.51,5.23-2.87,5.76-2.55,2,3.52,3.22,7.12,2.67,6.54,3.2,6.54c1.28,0,1.21-1.37-.15-2.68-.6-.59-1.37-3.6-1.7-6.71s-.88-5.61-1.24-5.57c-4.06.47-1.34-1.63,7.72-6,14.38-6.87,13-6.64,17.12-2.83,4.36,4,9.13,6.49,13.16,6.77,3.11.22,10.75-2.81,10.75-4.25,0-.47,2.23-2.32,4.94-4.12a34,34,0,0,0,6.3-5.08c2.43-3.27,3.49-2.11,2.71,3-.68,4.37-.59,4.67,1,3.4,1.16-.92,1.72-1,1.72-.22s-2.56,3.67-5.69,6.75c-3.76,3.71-5.91,6.75-6.34,9-1,5.09.14,6.61,1.47,2,.74-2.61,3-5.8,6.34-9l5.19-4.95-.58,4a57.65,57.65,0,0,1-1.55,7.08c-1.09,3.49-1,22.28.12,27.13a20.51,20.51,0,0,1,.23,6.51l-.51,3.37-1.34-2.93-1.33-2.93-.08,3.85a15.69,15.69,0,0,1-1.14,5.75c-.58,1.05-2.27,9.52-3.76,18.83-2.28,14.18-3.39,18.4-6.87,26-9,19.61-11.25,27.83-12.22,44.07-.85,14.28-1,14.94-3.66,17.34a26,26,0,0,1-3.51,2.8,18.45,18.45,0,0,0-3.11,4.08c-2.56,4.08-4.28,4.65-6.74,2.27-1.61-1.56-5.85-2.1-5.89-.75,0,.41-2.55,3.47-5.64,6.8-4.38,4.72-5.89,5.78-6.88,4.84-1.29-1.21-3.44-17.54-3.3-25,.05-2.22.41-9.43.82-16,.51-8.31.4-11.78-.36-11.33-.6.37-1.42,2.13-1.81,3.93a91.58,91.58,0,0,1-18.91,38.16c-3.41,4.09-6.7,8.34-7.33,9.45-1.14,2-1.14,2-2,0-1.35-3.19-1-37.1.36-39.91,6.51-13.08,6.83-15.69,1.26-10.16-3.68,3.64-4.88,3.94-5.75,1.44-.33-1-1.46-3.58-2.51-5.8s-2.39-5.17-3-6.55a30.64,30.64,0,0,0-2.1-4c-3.38-5.08-5.61-12.3-6.07-19.58-.43-7-.66-7.76-1.91-6.11-1.77,2.35-1.76,2.11.18-7.37,1.61-7.87,6.22-23.45,7.89-26.65,1.16-2.22,1.17-3.8,0-3.8-.48,0-1.75,1.93-2.8,4.29l-1.93,4.28-.78-12.06,0-.54c-.45-6.93-1-17.36-1.33-23.18C208.09,190.59,207.25,187.83,205.75,191.49Z"/>
  <path transform="translate(-.23)" d="M238.17,431.1l.52,8.07,8.32.57,11.2.75c2.47.16,2.81-.13,2.4-2.08-.26-1.25-.76-4.76-1.1-7.81s-.89-7-1.22-8.82l-.6-3.28H250c-6.64,0-8.05.32-10,2.27S237.7,423.78,238.17,431.1Zm-8.95-56c.39,5.41,1.17,12.3,1.74,15.3s1.72,9.54,2.56,14.53c2.38,14.14,2.28,14.09,10.7,5.71,8.72-8.69,13.15-17,12.16-22.78-.29-1.7-1-10.58-1.57-19.73s-1.59-20.84-2.26-26l-1.23-9.36-3.13,5.32a53.67,53.67,0,0,1-3.76,5.83c-1.87,1.51-10.88,13-13.2,16.85C228.65,365,228.56,365.68,229.22,375.07Zm-27-97.24c-.88-3.39,1.57-20.69,4.34-30.69.69-2.45.66-2.46-.95-.5-2.32,2.82-2.24.71.34-9.2,1.41-5.41,1.84-7.34,1.39-12.77l2.63-.17.78,12.06,1.93-4.28c1-2.36,2.32-4.29,2.8-4.29,1.14,0,1.13,1.58,0,3.8-1.67,3.2-6.28,18.78-7.89,26.65-1.94,9.48-1.95,9.72-.18,7.37,1.25-1.65,1.48-.93,1.91,6.11.46,7.28,2.69,14.5,6.07,19.58a30.64,30.64,0,0,1,2.1,4c.6,1.38,1.95,4.33,3,6.55s2.18,4.83,2.51,5.8c.87,2.5,2.07,2.2,5.75-1.44,5.57-5.53,5.25-2.92-1.26,10.16-1.4,2.81-1.71,36.72-.36,39.91.85,2,.85,2,2,0,.63-1.11,3.92-5.36,7.33-9.45a91.58,91.58,0,0,0,18.91-38.16c.39-1.8,1.21-3.56,1.81-3.93.76-.45.87,3,.36,11.33-.41,6.59-.77,13.8-.82,16-.14,7.46,2,23.79,3.3,25,1,.94,2.5-.12,6.88-4.84,3.09-3.33,5.62-6.39,5.64-6.8,0-1.35,4.28-.81,5.89.75,2.46,2.38,4.18,1.81,6.74-2.27l2.23.31a1.06,1.06,0,0,0-.28.71c0,1.27-4.77,6.8-5.86,6.8a12.82,12.82,0,0,1-3.14-2c-1.41-1.08-3.13-1.73-3.8-1.45s-3.58,3.62-6.44,7.41c-3.93,5.21-5.52,6.63-6.52,5.83-.73-.58-1.63-.75-2-.39s-.1,7.58.61,16,1.68,20.83,2.17,27.52c2.1,28.78,2.33,30.48,4.51,33.89l2.13,3.34.7-2.52c.64-2.28.78-2.13,1.44,1.51a25.53,25.53,0,0,0,1.55,5.55,46.21,46.21,0,0,1,2.16,7,30.36,30.36,0,0,0,2.12,6.55c.43.56,1.12,3.4,1.52,6.31.52,3.73,1.4,5.75,2.95,6.81,2.83,1.92,4.22,1.91,3.45,0-.35-.9,0-1.51.86-1.51,1.54,0,2.05,1.2,3.1,7.24,1.17,6.72,9.56,10.9,16.61,8.27,1.19-.44,1.65-2,1.65-5.54,0-2.72.46-4.93,1-4.93s1.05,1.7,1.07,3.78c0,3.14.21,3.47,1.13,1.95,1.19-2,.8-12.06-.6-15.31-.83-1.94-.79-1.95,1.11-.22,1.6,1.47,1.94,3.16,1.85,9.08a82.45,82.45,0,0,1-.52,9.28c-.32,1.59.15,2,2.18,2,2.3,0,2.67-.54,3.31-4.89.93-6.31,1.9-7.21,1.9-1.77,0,2.58.41,4,1,3.64s1.06-4.12,1.07-8.38c0-6.1.28-7.35,1.17-5.86.68,1.14.94,4.89.65,9.33-.27,4.08-.15,7.43.27,7.43.91,0,2-3.66,2-6.75a3.8,3.8,0,0,1,1.2-2.92c.85-.51,1,.75.67,4.48-.28,2.85-.23,5.17.11,5.15l1,2.28a16,16,0,0,1-4.9.81,16.07,16.07,0,0,0-6.38,1.48c-3.13,1.74-5.06,1.82-7.71.33-1.1-.62-5.56-1-9.92-.92-9.24.24-12.22-1.32-15.26-8-1-2.2-2.1-4-2.44-4a18.44,18.44,0,0,1-4-2.77c-2.9-2.38-3.82-4.41-6.57-14.36-1.75-6.38-3.57-12.28-4-13.12-.83-1.53-8.73-3.25-21.14-4.62-5.73-.63-6-.55-5.08,1.23.56,1,1.82,3.57,2.8,5.62,1.58,3.27,2.37,3.82,6.46,4.41a18.12,18.12,0,0,1,7.86,3.29c4.09,3.34,8,11.82,8.76,19.2.55,5.16.34,6.07-2,8.68-2.12,2.4-3.77,3.08-9.22,3.77a222.44,222.44,0,0,1-26.13,1.32l0-2.57c1.18,0,1.32-1.2.73-6.18-.91-7.56,1-7.44,2.09.14,1.15,8.12,2.59,4.74,2.7-6.37.13-12.1,1.71-9.74,1.89,2.84.09,5.6.43,7.6,1.13,6.55a13.44,13.44,0,0,0,1-5.55c0-3,.3-3.63,1-2.52.55.83,1,3.67,1,6.3,0,4.94.73,5.57,4.25,3.75,1.77-.92,2-2.23,2.07-10.84.08-11.52,1.64-9.89,2.4,2.52.27,4.31.54,8.08.61,8.35.42,1.81,3.17-4,3.17-6.74,0-1.84.48-3.34,1.07-3.34s.83,1.84.37,5.16c-.69,5.07-.67,5.13,1.57,4a11.55,11.55,0,0,0,3.92-4.52c1.54-3.13,1.5-3.76-.64-10a26.25,26.25,0,0,0-5.86-10.12c-3.33-3.23-4.21-3.53-12.66-4.3-5.83-.54-7.69-.95-5.19-1.16,2.14-.18,3.9-.64,3.9-1a39.3,39.3,0,0,0-2.73-5.74c-2.16-4-3-7.68-4.08-17.64-.74-6.93-2.09-16-3-20.16-3.48-15.86-4.73-23-5.81-33.26C222,354.6,222.4,356,217.69,351.47l-3.86-3.74.1-2.75a4.74,4.74,0,0,1,3.44,1.45,4.42,4.42,0,0,0,1.95,1.51c.36,0,.77-5.55.92-12.35s.38-15.11.52-18.49-.31-7.24-1-8.57c-4.62-9-11.76-24.14-11.76-24.93a13.85,13.85,0,0,0-1.55-3.83c-1-1.94-1.56-2.31-1.56-1.13C204.89,281.33,202.94,280.75,202.19,277.83Zm55.74,135.63V409c0-5.89-1.33-6.46-4.3-1.83-1.34,2.08-2.81,4.35-3.28,5-.63.94.24,1.26,3.37,1.26Z"/>
  <path class="cls-2" transform="translate(-.23)" d="M261.66,108.42c-2.85.38-4.38.22-6.18-.65-2.87-1.39-2.65-1.38-3.13-.16-.24.62,1.3,2.29,4.15,4.46,7.52,5.72,8.26,6.05,13.11,5.82,4.15-.2,4.45-.1,6.22,2.1,3.85,4.77,4.34,2,.83-4.76C272.92,108.06,271,107.17,261.66,108.42Zm-58.06,1.94c-2.26.79-2.37-.2-.2-1.73,1.38-1,2.1-2.68,2.46-5.82,0-.37,1-1,2.23-1.35s1.93-1.23,1.6-2.07.43-1.9,1.75-2.57a16.72,16.72,0,0,0,4.24-3.46c2.67-3.15,4.81-2.06,4.83,2.44s1,8.21,2.22,8.21c.53,0,.78-1.24.58-2.75-.53-3.77,2.25-10.62,7.46-18.39,4.26-6.36,12.93-15.15,14.94-15.15.55,0,.7-.76.33-1.69-.46-1.18.85-3.2,4.31-6.62,4.51-4.46,4.81-5,3.2-6.2-2.22-1.59-3.94-5.86-3.94-9.75,0-1.63-.47-3-1-3s-1,.8-1.06,1.77c0,1.5-.16,1.54-1,.25a7.85,7.85,0,0,1-1-3.72c0-2.53-2.27-4.35-2.95-2.39-.27.8-2-.38-4.37-3.1-2.16-2.42-4.28-4.07-4.7-3.67s-.29,1.31.31,2a23.67,23.67,0,0,1,2.46,5.8,18.32,18.32,0,0,0,3.41,6.47c2,1.93,2,2,.05,2.64s-1.79.77.59,2c3.22,1.66,5.1,4,5.15,6.35.08,4.64-7.51,14-9.67,11.86-.79-.76-.6-1.08.65-1.08,2.23,0,2.23-.93,0-4-1.63-2.27-1.63-2.38,0-1.77,3.73,1.39,1.49-1.54-3.45-4.52-5.1-3.07-6.72-4.62-3.64-3.47,2.29.85,1.9-1-.71-3.35-1.25-1.13-2-2.06-1.68-2.06,1.31,0,6.4,3,7.17,4.19.46.71,1.15,1,1.54.61s-.6-1.73-2.21-3c-6.31-5-9.93-9.14-9.33-10.67a1.94,1.94,0,0,0-.69-2.33c-.72-.43-1-1.07-.64-1.43s2.61,1.25,5,3.56,4.48,4.05,4.65,3.86c1.06-1.14-5.7-8.57-11.84-13-4-2.88-8-6.65-8.84-8.38-1.36-2.67-1.6-2.81-1.62-.92s3.46,8.94,5.15,10.39c1.24,1.06,3.19,6.33,2.57,6.93-.36.35-1.68-.62-2.94-2.15s-2.6-2.77-3-2.77c-1.22,0,.42,3.38,3.52,7.25s3.79,5.45,1.95,4.34c-2-1.21-1,1.2,1.46,3.44a11.78,11.78,0,0,1,3,4.32c.49,1.82.19,2-2.73,1.41-2.58-.5-3-.37-2,.59,1.82,1.77,1.57,3.33-.29,1.84-.86-.69-1.56-.83-1.56-.3,0,1.25,4.12,4.82,6.75,5.85,1.87.72,1.89.85.26,1.23-2.44.57-2.32,2.29.16,2.29,1.72,0,1.59.41-1,3.13-4.63,4.8-3.56,8.48,1.14,3.92,2.46-2.37,4.35-2.65,3.5-.5-.68,1.71,2.21,2.15,3.26.5a1.94,1.94,0,0,1,3.64,1c0,2.32-3.65,8.23-7.65,12.36-2.63,2.72-2.79,2.76-5.37,1.12-4.07-2.59-7-9.73-6.49-15.9a29.18,29.18,0,0,1,1.2-6.83c.55-1.17.21-1.85-1.13-2.26s-2.81-3.13-4.5-7.91c-2.24-6.36-2.57-9.07-2.57-20.92,0-12.2.24-14,2.35-17.87,1.42-2.58,3.32-4.51,4.8-4.87,5.07-1.23,15.24,2.91,22.29,9.09,4,3.54,14.75,16,14.75,17.21a5.82,5.82,0,0,0,1.56,2.49c2.62,2.81,6.63,11.24,6,12.72-.72,1.8.2,1.76,3.22-.15,3.42-2.18,22.71-4.81,30.24-4.13,3.43.31,9.35.87,13.14,1.24,6.64.65,6.94.58,7.69-1.73,1.78-5.47,16.14-20.09,27-27.49,7.86-5.35,16.06-9,19.32-8.52,2.5.34,2.52.41,2.43,11.93S359.88,38.94,355,49.58l-3.27,7.05a68.3,68.3,0,0,1-4.95,8.25c-2.51,3.58-3.48,6.31-4,11.33-.4,3.63-1.12,6.84-1.6,7.13s-1.95-1.18-3.26-3.27a53.35,53.35,0,0,0-5.28-6.81c-3.38-3.52-3.64-5.59-1-7.9,2.19-1.92,4.65-2.12,7.53-.63,2.46,1.28,2.57.18.3-3-1.64-2.26-1.6-2.46.78-4.23s2.31-1.86.47-1.88-1.57-.48,1.3-3.35c4.38-4.38,4.21-5.45-.45-2.78-3.77,2.16-6.48,1.94-3.47-.28,3.36-2.47,10.63-10.82,10-11.45-.37-.37-1.36.21-2.2,1.28s-1.53,1.44-1.55.84.91-1.93,2.05-2.93c2.22-1.95,2.79-4.54,1-4.54-.6,0-.13-1,1-2.2,3.24-3.38,2.78-5.31-.74-3.11l-2.86,1.78,1.92-3a26.78,26.78,0,0,1,4.64-5.25c1.5-1.22,2.39-2.54,2-2.93s-1.55,0-2.56.81c-3.44,2.86-4.94,3.16-2.42.48,1.58-1.68,2-2.69,1.14-2.69-1.83,0-9.38,7.75-9.38,9.62,0,.81-.38,1.47-.85,1.47-.79,0-4.35,6.35-4.35,7.76,0,.35,1.64-1.14,3.64-3.31,3.56-3.87,3.61-3.89,2.53-.92a19.89,19.89,0,0,1-3.83,5.8c-1.71,1.74-2.2,2.77-1.3,2.77s.37,1.07-1.36,2.82c-1.54,1.56-2.8,3.32-2.8,3.92s-2,3-4.42,5.39-3.89,4.48-3.17,4.72.95,1.18.6,2.11c-.24.64-.36,1-.29,1.12l-.75.18a32.38,32.38,0,0,1-1.33-7.07c0-3.4,3.18-11.43,6.33-16,3.34-4.83,2.44-5.79-1.33-1.44-1.36,1.56-3,2.67-3.64,2.46-1.3-.42-1.59.38-3.48,9.61-.91,4.45-1.63,6-2.4,5.29a4.18,4.18,0,0,0-2.5-1.06c-.94,0-.58,1.07,1.13,3.28a23.63,23.63,0,0,1,3.31,5.79c.74,2.44,5.52,11.07,6.7,12.1.73.64,5.32,7.47,8.22,12.22C336,87,337,89.39,337,90.33s1.17,4.19,2.6,7.22a39,39,0,0,1,2.6,6.4c0,.5.59,1.13,1.3,1.41s.57.54-.52.59c-2.29.1-2.3.92,0,3.33,1.44,1.55,1.51,2.07.39,2.74a1.46,1.46,0,0,0-.68,2c.39.61.25,1.12-.33,1.12a2.3,2.3,0,0,1-1.68-1,3.59,3.59,0,0,0-2.72-1c-1.15,0-1.79-.45-1.44-1,1.55-2.42-2.85-.71-5.45,2.12a50.06,50.06,0,0,1-5.64,4.88l-2.56-1.4a16.82,16.82,0,0,0,3.1-2.62c1.56-1.81,1.66-2.39.52-3.08s-1.13-1.28-.27-2.64l2.56-4c1.88-2.93.68-3.93-2.3-1.91a12.23,12.23,0,0,1-5.84,1.62c-4.08,0-9.15,2.32-10.46,4.8-3.12,5.9-2.07,16.94,2.72,28.63,1.67,4.07,3.33,8.6,3.7,10.07l.68,2.68-11.18.39c-9.34.33-11.51.11-13.25-1.3-4.86-4-11.24-3.53-16.11,1.09-1.64,1.55-3.25,2.57-3.58,2.26-1.11-1.09-.58-7.06.95-10.6,1.4-3.27,1.37-3.75-.46-6a16.21,16.21,0,0,1-2.68-5.13c-.38-1.47-2.48-4.46-4.65-6.63a16,16,0,0,0-9.64-5.1c-6.06-1.22-12.23-3.9-15.42-6.7-1.86-1.63-2-1.61-2,.33a4.84,4.84,0,0,0,1.59,3.32c.87.7,1.4,1.46,1.17,1.68-.53.51-7.88-3.64-10.41-5.88-1.06-.94-2.54-1.49-3.27-1.22s-2.09-.53-3-1.8c-2.22-3.07-3.48-1.65-4.61,5.21l-.91,5.52-1.57-3.4c-2.35-5.06-3.17-2.26-1.92,6.49a140.41,140.41,0,0,1,1.14,15.88c0,4.53.67,9.93,1.44,12,1.5,4.09,1.5,4.21,0,2.94a21.91,21.91,0,0,0-4.62-2.19c-6.73-2.49-10.57-7.71-18.12-24.59-1-2.17-1.38-4.21-.91-4.54,1.32-.93,6.55-7.93,6.55-8.77a7.65,7.65,0,0,1,1.82-2.75C205.33,109.81,205.33,109.74,203.6,110.36Z"/>
  <path class="cls-2" transform="translate(-.23)" d="m201.3 148.36c-0.6-2-0.2-1.75 1.94 1.21a20.58 20.58 0 0 0 7.85 6c4.46 2 5 2.5 3.76 3.83a12.18 12.18 0 0 0 -2.12 4.06l-0.15 0.5-2.15-0.78c0.68 0-0.58-2.34-3.77-6.42-2.53-3.23-4.94-7.01-5.36-8.4z"/>
  <path class="cls-2" transform="translate(-.23)" d="M192.81,428c-2.35.57-2.62.41-1.95-1.15.43-1,1.85-5,3.16-8.87,2.22-6.58,2.42-6.85,3.08-4,.38,1.66,1.33,5.29,2.09,8.06a59.79,59.79,0,0,1,1.73,9.07c.33,4,.29,4-3.46,4.34-4.55.37-5.75-1-3.54-4.06S195.93,427.26,192.81,428Z"/>
  <path class="cls-3" transform="translate(-.23)" d="M184.1,343.3c0-1.38.18-1.37,1.64,0a5.86,5.86,0,0,0,3.47,1.59c1,0,2.7,1.54,3.8,3.53,1.52,2.72,2.62,3.52,4.84,3.52s2.89-.48,2.89-2c0-3.93,4.85-1.23,8.14,4.53,1.13,2,1.15,2,1.18-.13A8.62,8.62,0,0,1,212,350l1.87-2.23,3.86,3.74c4.71,4.57,4.35,3.13,6.94,27.72,1.08,10.24,2.33,17.4,5.81,33.26.91,4.16,2.26,13.23,3,20.16,1.07,10,1.92,13.66,4.08,17.64a39.3,39.3,0,0,1,2.73,5.74c0,.38-1.76.84-3.9,1-2.5.21-.64.62,5.19,1.16,8.45.77,9.33,1.07,12.66,4.3a26.25,26.25,0,0,1,5.86,10.12c2.14,6.23,2.18,6.86.64,10a11.55,11.55,0,0,1-3.92,4.52c-2.24,1.16-2.26,1.1-1.57-4,.46-3.32.32-5.16-.37-5.16s-1.07,1.5-1.07,3.34c0,2.7-2.75,8.55-3.17,6.74-.07-.27-.34-4-.61-8.35-.76-12.41-2.32-14-2.4-2.52-.05,8.61-.3,9.92-2.07,10.84-3.52,1.82-4.23,1.19-4.25-3.75,0-2.63-.47-5.47-1-6.3-.74-1.11-1-.45-1,2.52a13.44,13.44,0,0,1-1,5.55c-.7,1-1-1-1.13-6.55-.18-12.58-1.76-14.94-1.89-2.84-.11,11.11-1.55,14.49-2.7,6.37-1.07-7.58-3-7.7-2.09-.14.59,5,.45,6.18-.73,6.18-4.4,0-7-6-7.19-16.53-.12-6.91-.16-7-1-2.62a51.61,51.61,0,0,0-.33,11.09c.49,6.05.4,6.4-1.09,4.59a7.77,7.77,0,0,1-1.62-4.22,3.83,3.83,0,0,0-1-2.89c-.66-.39-.79,1.06-.38,4,.8,5.68-1.1,6.19-4.57,1.24-1.81-2.56-2.34-4.76-2.34-9.53,0-7.79,2.3-12.73,6.93-14.86,1.91-.87,3.46-2.28,3.46-3.13,0-1.24-.52-1.14-2.72.54-3.19,2.43-4.1,2.12-4.9-1.67-.32-1.53-2-6.67-3.67-11.43A86.87,86.87,0,0,1,205.46,430c-.37-2.73-1.34-7.9-2.17-11.51s-2.2-9.95-3-14.11a480.8,480.8,0,0,0-14.67-55.22A28.49,28.49,0,0,1,184.1,343.3Z"/>
  <path class="cls-3" transform="translate(-.23)" d="m181.34 452.22c-3.33 0.81-3-0.22 1.65-5.37s5.64-4.88 8.58 1.57c2.35 5.15 1.83 9.63-1.52 13.17s-3.82 2.82-3.28-3c0.35-3.8 0.21-4.72-0.5-3.28a14 14 0 0 0 -1.05 4.79c0 1.53-0.6 2.77-1.25 2.77s-1-1.85-0.68-5.61c0.46-5.49 0.41-5.61-1.95-5.04z"/>
  <path class="cls-3" transform="translate(-.23)" d="m177.4 462.13a2.5 2.5 0 0 1 1.11 -3c2.31-1.63 2.74-1.16 1.89 2.11-0.79 3.02-2.01 3.39-3 0.89z"/>
  <path class="cls-3" transform="translate(-.23)" d="M174.23,462.85c1.27-1,1.56-1,1.56.39a1.61,1.61,0,0,1-1.56,1.63c-.86,0-1.56-.17-1.56-.38A5.34,5.34,0,0,1,174.23,462.85Z"/>
  <path class="cls-1" transform="translate(-.23)" d="M119.12,433s-2.46-.33-5.46-.71-5.46-1.08-5.46-1.54c0-1.35,6.92-7.51,10.62-9.44l3.42-1.79-7.67.68-7.66.68,2.46-4.24c3.08-5.3,8.35-10.7,12.45-12.76l3.13-1.56-1.62,3a12.53,12.53,0,0,0-1.54,4.85c.06,1.62.17,1.6,1.08-.21s11.32-9.57,12.92-9.57c.4,0,.48.91.18,2-.73,2.72-.24,2.58,4.81-1.39,4.34-3.42,15.11-9.15,15.85-8.44.21.21-.58,2.13-1.76,4.26-2.3,4.16-4.13,16.43-2,13.64a23,23,0,0,0,2.28-5.79c1.86-6.91,7.7-9.15,30.8-11.8l5.46-.63v4.61c0,5.94-3.66,13-9.91,19-6.62,6.42-3.79,5.9,3.31-.61l5.75-5.27-.72,4c-1.21,6.83-6.26,15.83-12.1,21.57-3.06,3-4.63,5.12-3.49,4.68s2.9-1,3.9-1.31,1.82-.85,1.82-1.28.82-1,1.82-1.28,2.73-.86,3.84-1.3c1.58-.63,1.24.27-1.56,4.11-6.23,8.57-19.54,20.65-22.74,20.65a1.06,1.06,0,0,0-1.11,1c0,1.34.83,1.28,6.85-.49,2.81-.83,5.29-1.51,5.51-1.52s-1.42,1.35-3.64,3-4.58,3.45-5.24,4-4.76,2.8-9.11,5.05A84.31,84.31,0,0,1,146,475c-.37,0,1.74-2.47,4.68-5.48s5.35-6.25,5.35-7.18c0-1.32-.32-1.44-1.41-.56-1.43,1.14-12.65,5.16-14.43,5.16-.53,0,.64-1.81,2.59-4,3.54-4,7.32-10.57,8.57-14.87,1.09-3.76-.37-2.56-2.67,2.18-1.75,3.61-3.24,5-7.87,7.16-6.21,2.95-8,2.83-4.56-.29,6-5.38,9.93-13.22,5-9.87-2.36,1.61-6,2.13-6,.87,0-.38,1.14-1.86,2.53-3.28a13.54,13.54,0,0,0,3.16-5.59l.64-3-1.85,2.52c-3.5,4.77-7.79,8-12,9.13-5.3,1.39-6.52.35-5.54-4.73.55-2.8,2.24-5.21,6.37-9.06,3.1-2.88,5.63-6,5.63-6.92,0-1.26-.8-.9-3.2,1.42a13.83,13.83,0,0,1-7.53,3.78Z"/>
  <path class="cls-2" transform="translate(-.23)" d="M23,385.25c-4.22,2.3-5.69,3.75-4.58,3.93l-.19,2.19c-.75,0-2.4.8-4.89,2.44-5.14,3.38-5.57,3.19-2.75-1.26C16.09,383.89,23,379,33.33,376.36l3.64-.92L32,374.68c-2.72-.42-5.19-1.13-5.47-1.58s2.15-1.36,5.43-2c5.51-1.11,8.37-1,19.55.58l4.16.6-3.6-3.09c-4.19-3.6-4.21-3.59,3-1.5,5.84,1.68,12.1,5.08,14.47,7.85s3.2,1.82,1.59-1.93L69.66,370l2.89,1.46c5.2,2.62,9.21,8.42,11.79,17,1,3.36.94,3.37-3.5.45-4.06-2.67-14.42-5.36-16.3-4.23-1.65,1,.59,2.49,3.73,2.51,3.81,0,12.21,4.94,16.74,9.79,2.41,2.57,4.13,5.06,3.84,5.52s-2.25.69-4.85.77a68.21,68.21,0,0,1-11.83-.64q-.89-.15-1.56-.33c-2.76-.74-4-1.72-4.46-3.6-.71-2.75-10.67-13-15.36-15.85-2.83-1.69-7.6-2.37-6.71-.94.27.42-3.33.76-8,.77C29,382.74,26.86,383.15,23,385.25Z"/>
  <path class="cls-2" transform="translate(-.23)" d="M79.66,337.2c-1.51.56-1.35-.11.88-3.79,3-5,3.32-6.11,1.4-5-.72.42.29-1,2.24-3.21a34.58,34.58,0,0,1,4.94-4.79c2.13-1.22,1.67-2.6-.68-2-1.15.29-2.08.22-2.08-.16,0-.91,9.39-9.63,10.36-9.63a13.64,13.64,0,0,0,3.77-2.52,15.71,15.71,0,0,1,3.62-2.52c.32,0,1.91,4.2,3.52,9.33,5.28,16.8,8.69,23.77,21.88,44.78a76.78,76.78,0,0,1,6.22,12c2.56,7.31,3.87,8.81,3.05,3.47a26.64,26.64,0,0,0-1.53-6.05c-.46-.85-2.29-4.71-4.08-8.58s-3.59-7.26-4-7.56c-1.06-.74-9.41-16.83-11.26-21.7-1.46-3.82-4.56-14-6.64-21.67-2.82-10.48.22-30,7.22-46.36,7.76-18.16,12.46-24.56,24.58-33.48,3.46-2.55,10.34-8.43,15.3-13.08,10.19-9.54,10.93-8.64,3.25,4-6.11,10-4.57,9.54,4.86-1.52,1.74-2.05,4.14-9.2,6.16-18.39,1-4.71,2.64-11.93,3.57-16a64.43,64.43,0,0,1,5.44-14.21c3.85-6.9,12-16.11,14.3-16.11.71,0,2.33,1.82,3.62,4,2.53,4.36,3.81,5.24,2.94,2-.77-2.86.08-2.52,4.13,1.63,2.08,2.14,3.34,3.13,3.79,3.13l2.15.78c-.77,2.51-2,5.25-5.92,13.61-4.31,9.1-5.93,14.86-5.89,20.95,0,5.27.16,5.6,1.55,3.82.83-1.07,1.67-1.75,1.87-1.51s1.13,6.78,2.08,14.54c.5,4.07.84,7,1,9.28.45,5.43,0,7.36-1.39,12.77-2.58,9.91-2.66,12-.34,9.2,1.61-2,1.64-1.95.95.5-2.77,10-5.22,27.3-4.34,30.69.75,2.92,2.7,3.5,2.71.81,0-1.18.52-.81,1.56,1.13A13.85,13.85,0,0,1,208,283.6c0,.79,7.14,15.92,11.76,24.93.68,1.33,1.13,5.18,1,8.57s-.38,11.7-.52,18.49-.56,12.35-.92,12.35a4.42,4.42,0,0,1-1.95-1.51,5.3,5.3,0,0,0-7.22-.07c-1.05,1.22-1.78,1.07-5-1-4.63-3.05-4.89-3-6.4.18s-3.29,2.17-5.39-2.74c-1-2.25-1.83-2.93-3.26-2.57-2.72.69-7.89-4.87-9.23-9.92a51.85,51.85,0,0,0-2-6.05c-1.31-2.87-5-19.19-5.81-25.41-.48-3.83-.21-6.14,1-8.47,2.18-4.24,2.19-4.15-1.84-12.4a60.8,60.8,0,0,1-5.87-26.47c0-4.55-.46-6.47-1.86-7.7-1.79-1.56-1.85-1.21-1.48,8.16.43,10.92,1.36,17.21,3.74,25.42,1.86,6.4,2,8.95,1.11,18.65a39,39,0,0,0,.43,11.09c2.76,10.22,5.41,19.77,7.42,26.71,1.2,4.16,3.06,10.74,4.14,14.62s3,10.23,4.22,14.11c2.83,8.8,6.41,23.81,5.83,24.38-.25.24-4.12.83-8.62,1.31s-9.92,1.2-12.07,1.59c-4.19.76-5-.07-2.08-2.14,1-.71,1.57-1.53,1.26-1.83-.94-.9-14,2.11-18.31,4.22a19.25,19.25,0,0,1-6.78,2,12.6,12.6,0,0,0-5.88,2.14c-3.24,2.23-6,2.87-4.86,1.13,2.27-3.57-10.3,1.84-18.93,8.14-7,5.14-10.89,5.15-15.52,0-2.67-2.95-7.31-13.41-8.71-19.67-.51-2.27-1.92-7.75-3.14-12.19S83.7,362,83.19,360a36.29,36.29,0,0,1-1-7.51c0-4-1.33-4-2.48,0-.31,1.11-.37.43-.12-1.51C81.61,335.64,81.61,336.47,79.66,337.2Z"/>
  <path transform="translate(-.23)" d="M79.51,407.06c-2.46,1.57-2.78,1.55-5.44-.36a20.8,20.8,0,0,0-2.38-1.47l.48-2.55a68.21,68.21,0,0,0,11.83.64l.07,2.17A9.85,9.85,0,0,0,79.51,407.06Z"/>
  <path transform="translate(-.23)" d="M328.37,152.9c-3.32.42-4.94,1.1-4.94,2.08,0,1.18,1.15,1.34,6,.81,3.29-.36,6.56-1.1,7.28-1.64,2.07-1.59,1.51-2.85-1-2.34C334.36,152.07,331.09,152.56,328.37,152.9Zm1.51,4.53c-3.77,0-6.45.89-6.45,2.13,0,1.51,6.94,1,8.32-.62C332.85,157.66,332.58,157.43,329.88,157.43Zm-5.47,5.23a3.2,3.2,0,0,0-1.82,1.77c-.26.75.13,1.13.91.88a3.2,3.2,0,0,0,1.82-1.77C325.58,162.79,325.19,162.41,324.41,162.66Zm-4.7-18.33c.94,2.49,1.94,5.15,2.21,5.9.35,1,1.59,1.2,4.38.75,2.14-.34,6.36-.9,9.37-1.24,6.23-.71,8-2.44,11.62-11.33,2.5-6.13,2.68-8.79.71-9.91-.79-.44-2.93-3.18-4.77-6.09s-4.12-5.35-5.07-5.41c-3.93-.27-5.84.44-8.91,3.28a34.1,34.1,0,0,1-6.05,4.46,10.74,10.74,0,0,0-3.83,3.29C317.71,131,317.89,139.49,319.71,144.33ZM308.9,283.22c0,1.16,4-4,5.73-7.63a97.32,97.32,0,0,0,4.15-12.6c2.68-10,6.53-18.63,9.28-20.84,1.24-1,1.51-2.21,1-4.47-.65-2.89-.57-3,1.17-1.6,2,1.59,2,1-.21-11.11l-.64-3.53,2.35,2,2.36,2-.72-3.52c-.4-1.95-1.41-6.25-2.25-9.57-2-7.87-3.1-18.14-1.87-17.4.55.33.79-3,.57-8-.26-6,0-8.83.89-9.36s1-1.85.55-3.89c-1.1-4.85-2.63-4.79-2.63.11a81.27,81.27,0,0,1-2.06,13.41c-2.59,11.38-2.6,14.86,0,22.79a55.21,55.21,0,0,1,2.11,11.46c.07,1.54-.13,2.11-.71.72-1.17-2.82-2.43.23-2.43,5.92,0,6.65-1.8,15-3.24,15-.5,0-.94-1.93-1-4.28l-.05-4.29-1.36,4a102.23,102.23,0,0,0-2.62,14.61c-1.25,10.57-2.12,13.92-6.22,24A42,42,0,0,0,308.9,283.22Zm2.31-116.69c-4.35,2.16-5.09,3-3.72,4.34s3.41.59,7-2.72c2-1.87,3.71-4.22,3.71-5.23,0-1.67-.12-1.69-1.3-.21A21.63,21.63,0,0,1,311.21,166.53Zm-12.16,7.88a21.26,21.26,0,0,1-5.59,1.17c-2.73,0-2.88.83-.44,2.63,2.79,2,6.69,1.64,10.14-1.05,2.84-2.22,2.94-2.5,1.17-3.17A9.53,9.53,0,0,0,299.05,174.41Zm-.32,245.53c-5.45-.85-5.5-.45-1.77,13.44,3.48,12.91,3.31,12.54,5.41,12.13,1.51-.3,1.79-1.33,1.62-5.87l-.21-5.51,1.41,4.53,1.4,4.54.1-4.35a15.93,15.93,0,0,0-1-6.36,5,5,0,0,1-.69-3.21c.87-2.49,4.12,5.88,4.12,10.62,0,6,1,5.44,1.91-1l.69-4.74.17,4.53c.14,3.67.37,4.19,1.25,2.74,1.4-2.33.32-7.22-2.71-12.31C307,423.24,303.72,420.71,298.73,419.94ZM282.3,162.62c-4.14-.35-4.09-.45-1.91,3.8,1.58,3.06,1.93,3.21,6,2.67,3.66-.49,3.92-.42,1.73.49s-2.3,1.23-1,2.06c2.42,1.57,14.28.59,16.28-1.35,2.16-2.1.6-4.29-3.64-5.11-2.23-.43-3.45-1.74-5.4-5.76-2.91-6-5.39-8-10-8-3.94,0-6.86,2.66-4.51,4.1,1.22.75,1.17.92-.33.93-1.24,0-1.82.81-1.82,2.53,0,2.33.37,2.52,4.85,2.52,2.67,0,4.52.33,4.11.73S284.28,162.78,282.3,162.62Zm-35,14.1,4,2.86,3.95,2.86,4.19-2.36c2.31-1.31,7.24-3.81,10.95-5.56,8.15-3.84,7.87-3.6,6.36-5.36-.95-1.1-2.18-1.21-5.54-.48-6.17,1.34-17.46,4.91-20.92,6.6Zm18-13.19c-7.53.05-22.48,2.07-23.64,3.19-.77.74,1.52,6.16,3,7.06,1.64,1,1.06,1.12,8.34-1.66a112.7,112.7,0,0,1,11.09-3.58C276.74,165.52,277.25,163.46,265.4,163.53Zm-30.63-6.14c-5.17.79-7.42,2-5.16,2.79a8.55,8.55,0,0,1,2.6,1.69c2.53,2.44,5.41,3.59,5.78,2.3.19-.65.59-1.87.89-2.71.4-1.12.77-.91,1.47.85.85,2.13,1.37,2.29,5.36,1.68,2.43-.37,6.06-1.08,8.06-1.57a93.08,93.08,0,0,1,10.71-1.51c5.71-.51,7-.94,6.76-2.23-.17-.88-1.72-2-3.44-2.48C264.58,155.29,243.52,156.05,234.77,157.39Zm-9.09-31.24c1.45,2.65-1.08,2.87-3.7.32-1.68-1.63-1.74-1.39-1,4.29a100.45,100.45,0,0,1,.59,12c-.15,6.59,2.54,13.65,5.2,13.63.86,0,6.24-.66,12-1.46a177.87,177.87,0,0,1,20-1.5c5.29,0,9.61-.34,9.61-.72,0-1.84-5-7.46-7.54-8.48-1.57-.64-2.85-1.55-2.85-2,0-1.76,4.55-.83,7.84,1.6l3.37,2.49.46-3a10.11,10.11,0,0,0-.77-5.32,28.11,28.11,0,0,1-2-5.25c-1.09-4.23-4.5-7.35-9.38-8.57-2.32-.58-5.16-1.32-6.29-1.65-1.83-.52-1.91-.39-.66,1.07,1.93,2.25.53,2.09-7.57-.86-7.79-2.84-8.85-3-7.07-1.31a3.93,3.93,0,0,1,1.25,2.11c0,.5-2.69-1.48-6-4.39l-6-5.31-.31,5.17C224.69,121.78,225.05,125,225.68,126.15Zm-13.22,47.18c-.57,1.4,1.21.9,9.34-2.66a39.41,39.41,0,0,1,6.41-2.29c3.39-.62,2.78-2.27-1.91-5.15-7-4.31-8.17-3.88-11.47,4.28Zm-8.86-61.6a7.65,7.65,0,0,0-1.82,2.75c0,.84-5.23,7.84-6.55,8.77-.47.33-.06,2.37.91,4.54,7.55,16.88,11.39,22.1,18.12,24.59a21.91,21.91,0,0,1,4.62,2.19c1.48,1.27,1.48,1.15,0-2.94-.77-2.09-1.41-7.49-1.44-12a140.41,140.41,0,0,0-1.14-15.88c-1.25-8.75-.43-11.55,1.92-6.49l1.57,3.4.91-5.52c1.13-6.86,2.39-8.28,4.61-5.21.91,1.27,2.26,2.07,3,1.8s2.21.28,3.27,1.22c2.53,2.24,9.88,6.39,10.41,5.88.23-.22-.3-1-1.17-1.68a4.84,4.84,0,0,1-1.59-3.32c0-1.94.1-2,2-.33,3.19,2.8,9.36,5.48,15.42,6.7a16,16,0,0,1,9.64,5.1c2.17,2.17,4.27,5.16,4.65,6.63a16.21,16.21,0,0,0,2.68,5.13c1.83,2.25,1.86,2.73.46,6-1.53,3.54-2.06,9.51-.95,10.6.33.31,1.94-.71,3.58-2.26,4.87-4.62,11.25-5,16.11-1.09,1.74,1.41,3.91,1.63,13.25,1.3l11.18-.39-.68-2.68c-.37-1.47-2-6-3.7-10.07-4.79-11.69-5.84-22.73-2.72-28.63,1.31-2.48,6.38-4.8,10.46-4.8a12.23,12.23,0,0,0,5.84-1.62c3-2,4.18-1,2.3,1.91l-2.56,4c-.86,1.36-.79,2,.27,2.64s1,1.27-.52,3.08a16.82,16.82,0,0,1-3.1,2.62c-2,1.38-4.34,2.47-5.53,2.47-.6,0-1.09-.68-1.09-1.52a1.55,1.55,0,0,0-1.56-1.51c-1.7,0-2,5.36-.6,10.08.73,2.44.77,2.46,1.48.38.4-1.18,3.41-4,6.68-6.19,1-.7,2.12-1.49,3.18-2.31a50.06,50.06,0,0,0,5.64-4.88c2.6-2.83,7-4.54,5.45-2.12-.35.56.29,1,1.44,1a3.59,3.59,0,0,1,2.72,1,2.3,2.3,0,0,0,1.68,1c.58,0,.72-.51.33-1.12a1.46,1.46,0,0,1,.68-2c1.12-.67,1.05-1.19-.39-2.74-2.26-2.41-2.25-3.23,0-3.33,1.09,0,1.3-.29.52-.59s-1.3-.91-1.3-1.41a39,39,0,0,0-2.6-6.4c-1.43-3-2.6-6.28-2.6-7.22S336,87,334.73,85c-2.9-4.75-7.49-11.58-8.22-12.22-1.18-1-6-9.66-6.7-12.1a23.63,23.63,0,0,0-3.31-5.79c-1.71-2.21-2.07-3.28-1.13-3.28a4.18,4.18,0,0,1,2.5,1.06c.77.75,1.49-.84,2.4-5.29,1.89-9.23,2.18-10,3.48-9.61.64.21,2.28-.9,3.64-2.46,3.77-4.35,4.67-3.39,1.33,1.44-3.15,4.53-6.33,12.56-6.33,16a32.38,32.38,0,0,0,1.33,7.07c.63,2.18,1.33,3.93,1.72,3.93s1.51-1.59,2.46-3.53c1.93-3.91,1.43-4.42-1.7-1.76-1.12,1-1.62,1.34-1.73,1.18s0-.48.29-1.12c.35-.93.08-1.88-.6-2.11s.61-2.22,3.17-4.72,4.42-4.79,4.42-5.39,1.26-2.36,2.8-3.92c1.73-1.75,2.25-2.82,1.36-2.82s-.41-1,1.3-2.77a19.89,19.89,0,0,0,3.83-5.8c1.08-3,1-2.95-2.53.92-2,2.17-3.64,3.66-3.64,3.31,0-1.41,3.56-7.76,4.35-7.76.47,0,.85-.66.85-1.47,0-1.87,7.55-9.62,9.38-9.62.86,0,.44,1-1.14,2.69-2.52,2.68-1,2.38,2.42-.48,1-.84,2.16-1.2,2.56-.81s-.48,1.71-2,2.93a26.78,26.78,0,0,0-4.64,5.25l-1.92,3,2.86-1.78c3.52-2.2,4-.27.74,3.11-1.17,1.21-1.64,2.2-1,2.2,1.79,0,1.22,2.59-1,4.54-1.14,1-2.07,2.32-2.05,2.93s.72.23,1.55-.84,1.83-1.65,2.2-1.28c.65.63-6.62,9-10,11.45-3,2.22-.3,2.44,3.47.28,4.66-2.67,4.83-1.6.45,2.78-2.87,2.87-3.05,3.33-1.3,3.35s1.79.19-.47,1.88-2.42,2-.78,4.23c2.27,3.15,2.16,4.25-.3,3-2.88-1.49-5.34-1.29-7.53.63-2.63,2.31-2.37,4.38,1,7.9a53.35,53.35,0,0,1,5.28,6.81c1.31,2.09,2.78,3.56,3.26,3.27s1.2-3.5,1.6-7.13c.55-5,1.52-7.75,4-11.33a68.3,68.3,0,0,0,4.95-8.25L355,49.58c4.91-10.64,6.24-16.57,6.33-28.23s.07-11.59-2.43-11.93c-3.26-.45-11.46,3.17-19.32,8.52-10.86,7.4-25.22,22-27,27.49-.75,2.31-1.05,2.38-7.69,1.73-3.79-.37-9.71-.93-13.14-1.24-7.53-.68-26.82,1.95-30.24,4.13-3,1.91-3.94,2-3.22.15.58-1.48-3.43-9.91-6-12.72A5.82,5.82,0,0,1,250.65,35c0-1.18-10.7-13.67-14.75-17.21-7.05-6.18-17.22-10.32-22.29-9.09-1.48.36-3.38,2.29-4.8,4.87-2.11,3.82-2.35,5.67-2.35,17.87,0,11.85.33,14.56,2.57,20.92,1.69,4.78,3.25,7.52,4.5,7.91s1.68,1.09,1.13,2.26a29.18,29.18,0,0,0-1.2,6.83c-.5,6.17,2.42,13.31,6.49,15.9,2.58,1.64,2.74,1.6,5.37-1.12,4-4.13,7.65-10,7.65-12.36a1.94,1.94,0,0,0-3.64-1c-1.05,1.65-3.94,1.21-3.26-.5.85-2.15-1-1.87-3.5.5-4.7,4.56-5.77.88-1.14-3.92,2.63-2.72,2.76-3.13,1-3.13-2.48,0-2.6-1.72-.16-2.29,1.63-.38,1.61-.51-.26-1.23-2.63-1-6.75-4.6-6.75-5.85,0-.53.7-.39,1.56.3,1.86,1.49,2.11-.07.29-1.84-1-1-.57-1.09,2-.59,2.92.57,3.22.41,2.73-1.41a11.78,11.78,0,0,0-3-4.32c-2.47-2.24-3.49-4.65-1.46-3.44,1.84,1.11,1.11-.53-1.95-4.34s-4.74-7.25-3.52-7.25c.39,0,1.74,1.25,3,2.77s2.58,2.5,2.94,2.15c.62-.6-1.33-5.87-2.57-6.93C213.58,28,210.1,21,210.12,19s.26-1.75,1.62.92c.88,1.73,4.86,5.5,8.84,8.38,6.14,4.44,12.9,11.87,11.84,13-.17.19-2.26-1.55-4.65-3.86s-4.63-3.91-5-3.56-.08,1,.64,1.43a1.94,1.94,0,0,1,.69,2.33c-.6,1.53,3,5.67,9.33,10.67,1.61,1.27,2.6,2.62,2.21,3s-1.08.1-1.54-.61c-.77-1.22-5.86-4.19-7.17-4.19-.33,0,.43.93,1.68,2.06,2.61,2.36,3,4.2.71,3.35-3.08-1.15-1.46.4,3.64,3.47,4.94,3,7.18,5.91,3.45,4.52-1.63-.61-1.63-.5,0,1.77,2.21,3,2.21,4,0,4-1.25,0-1.44.32-.65,1.08,2.16,2.1,9.75-7.22,9.67-11.86,0-2.36-1.93-4.69-5.15-6.35-2.38-1.23-2.42-1.38-.59-2s1.93-.71-.05-2.64a18.32,18.32,0,0,1-3.41-6.47,23.67,23.67,0,0,0-2.46-5.8c-.6-.71-.74-1.61-.31-2s2.54,1.25,4.7,3.67c2.42,2.72,4.1,3.9,4.37,3.1.68-2,2.93-.14,2.95,2.39a7.85,7.85,0,0,0,1,3.72c.86,1.29,1,1.25,1-.25,0-1,.49-1.77,1.06-1.77s1,1.33,1,3c0,3.89,1.72,8.16,3.94,9.75,1.61,1.16,1.31,1.74-3.2,6.2-3.46,3.42-4.77,5.44-4.31,6.62.37.93.22,1.69-.33,1.69-2,0-10.68,8.79-14.94,15.15-5.21,7.77-8,14.62-7.46,18.39.2,1.51-.05,2.75-.58,2.75-1.24,0-2.2-3.58-2.22-8.21s-2.16-5.59-4.83-2.44a16.72,16.72,0,0,1-4.24,3.46c-1.32.67-2.07,1.77-1.75,2.57s-.31,1.68-1.6,2.07-2.19,1-2.23,1.35c-.36,3.14-1.08,4.84-2.46,5.82-2.17,1.53-2.06,2.52.2,1.73C205.33,109.74,205.33,109.81,203.6,111.73ZM192.81,428c3.12-.76,3.42.16,1.11,3.36s-1,4.43,3.54,4.06c3.75-.3,3.79-.36,3.46-4.34a59.79,59.79,0,0,0-1.73-9.07c-.76-2.77-1.71-6.4-2.09-8.06-.66-2.82-.86-2.55-3.08,4-1.31,3.88-2.73,7.87-3.16,8.87C190.19,428.43,190.46,428.59,192.81,428ZM183,446.85c-4.66,5.15-5,6.18-1.65,5.37,2.36-.57,2.41-.45,1.95,5-.33,3.76-.1,5.61.68,5.61s1.21-1.24,1.25-2.77a14,14,0,0,1,1.05-4.79c.71-1.44.85-.52.5,3.28-.54,5.84.07,6.41,3.28,3s3.87-8,1.52-13.17C188.63,442,187.58,441.78,183,446.85Zm-4.48,12.26a2.5,2.5,0,0,0-1.11,3c1,2.5,2.21,2.13,3-.91C181.25,458,180.82,457.48,178.51,459.11Zm-2.72,4.13c0-1.34-.29-1.41-1.56-.39a5.34,5.34,0,0,0-1.56,1.64c0,.21.7.38,1.56.38A1.61,1.61,0,0,0,175.79,463.24Zm-68.88-42.41,7.66-.68,7.67-.68-3.42,1.79c-3.7,1.93-10.62,8.09-10.62,9.44,0,.46,2.46,1.15,5.46,1.54s5.46.7,5.46.71l4.34-.67A13.83,13.83,0,0,0,131,428.5c2.4-2.32,3.2-2.68,3.2-1.42,0,.92-2.53,4-5.63,6.92-4.13,3.85-5.82,6.26-6.37,9.06-1,5.08.24,6.12,5.54,4.73,4.19-1.09,8.48-4.36,12-9.13l1.85-2.52-.64,3a13.54,13.54,0,0,1-3.16,5.59c-1.39,1.42-2.53,2.9-2.53,3.28,0,1.26,3.65.74,6-.87,4.94-3.35,1,4.49-5,9.87-3.46,3.12-1.65,3.24,4.56.29,4.63-2.19,6.12-3.55,7.87-7.16,2.3-4.74,3.76-5.94,2.67-2.18-1.25,4.3-5,10.86-8.57,14.87-1.95,2.22-3.12,4-2.59,4,1.78,0,13-4,14.43-5.16,1.09-.88,1.41-.76,1.41.56,0,.93-2.41,4.16-5.35,7.18S145.63,475,146,475a84.31,84.31,0,0,0,8.56-4.08c4.35-2.25,8.44-4.52,9.11-5.05s3-2.33,5.24-4,3.86-3,3.64-3-2.7.69-5.51,1.52c-6,1.77-6.85,1.83-6.85.49a1.06,1.06,0,0,1,1.11-1c3.2,0,16.51-12.08,22.74-20.65,2.8-3.84,3.14-4.74,1.56-4.11-1.11.44-2.84,1-3.84,1.3s-1.82.86-1.82,1.28-.82,1-1.82,1.28-2.75.87-3.9,1.31.43-1.67,3.49-4.68c5.84-5.74,10.89-14.74,12.1-21.57l.72-4-5.75,5.27c-7.1,6.51-9.93,7-3.31.61,6.25-6.07,9.91-13.09,9.91-19v-4.61l-5.46.63c-23.1,2.65-28.94,4.89-30.8,11.8a23,23,0,0,1-2.28,5.79c-2.1,2.79-.27-9.48,2-13.64,1.18-2.13,2-4.05,1.76-4.26-.74-.71-11.51,5-15.85,8.44-5.05,4-5.54,4.11-4.81,1.39.3-1.1.22-2-.18-2-1.6,0-12,7.68-12.92,9.57s-1,1.83-1.08.21a12.53,12.53,0,0,1,1.54-4.85l1.62-3-3.13,1.56c-4.1,2.06-9.37,7.46-12.45,12.76ZM73.36,489.38l-18.71.19L49.45,486c-5.85-4-11-8.59-12.86-11.59-1.12-1.78-1.19-1.63-.62,1.26.35,1.8.29,3.27-.15,3.27s-3.07-1.86-5.85-4.13c-4.8-3.92-5-4-4.37-1.51.37,1.44.36,2.62,0,2.62-1.92,0-8.39-6-13.67-12.69-3.25-4.11-6.24-7.47-6.66-7.47s-1.77-2.93-3-6.51c-2.07-5.94-2.23-8-1.82-23.94.24-9.59.74-19.25,1.12-21.46,2.55-15.24,2.77-15.86,7-20.07,3.78-3.74,4-4.15,2-4.45-1.2-.17-2.17-.63-2.14-1,.05-1,7.52-5.87,10.2-6.69,1.23-.38,2.23-1.11,2.23-1.63s.59-.94,1.3-.95c1.92,0,12-4.86,10.27-5-1.15-.06-1.17-.37-.13-1.59,1.52-1.78,17.85-2.17,22.29-.53,2.15.79,2.67.68,2.67-.58,0-2.12,4.75-1.09,12.19,2.65,8.19,4.12,8.6,4.22,8.6,2a1.81,1.81,0,0,0-1.54-2c-2.11,0-3-4.13-2.22-10.38.62-5,.58-5.14-1-2.72s-1.56,2-.94-5.55c.37-4.43,1.35-9.65,2.18-11.59,1-2.46,1.12-3.14.21-2.27-4.53,4.39-1.76-3.8,3.49-10.33,5.54-6.88,5.64-7,4.2-6.18-.71.42-1.28.39-1.27-.06.07-1.61,4.77-5.94,11.46-10.55a70.36,70.36,0,0,0,8.19-6.3c1.32-1.55,3.37-9.54,5.23-20.44.86-5.07,4.59-15.87,6.19-17.94a28.9,28.9,0,0,0,2.23-4.55c5.58-13.64,17.42-28.13,29.06-35.54,6.57-4.19,16.87-13.73,20.39-18.89,1.32-1.94,3.89-9.2,5.71-16.13,4.74-18.07,8.46-24.52,21-36.37l5-4.72L194,137.29a55.07,55.07,0,0,0-3.7-9.94c-2.58-4.66-2.55-5,.58-6.39,2.75-1.21,3.46-3.4,1.33-4.09-.81-.26-.26-1.39,1.52-3.12,1.54-1.49,2.55-3.32,2.26-4.07s.69-2.78,2.2-4.52,2.19-3.17,1.49-3.17c-1.88,0,.64-2.63,5.81-6.08,2.38-1.59,4.89-4.2,5.58-5.81,1.06-2.49.94-3.42-.84-6.35-2.78-4.58-4.11-10.81-3.09-14.47.58-2.08.39-3.45-.61-4.54-.79-.85-2.38-4.5-3.54-8.11-6-18.82-5.21-36.2,2.41-51.24L208.11,0l6.45.72c3.55.4,7.38,1.35,8.5,2.11a8.42,8.42,0,0,0,3.64,1.41c2.15,0,7.18,4,16.69,13.23C250.17,24,260,36.19,260,38a8.07,8.07,0,0,0,1.84,2.46c1.67,1.75,2.53,1.82,10.13.87a178.35,178.35,0,0,1,22.12-.56l13.8.47L311,37.1c6.45-8.62,28.53-27.84,32-27.84.64,0,2.08-.95,3.2-2.12,2.56-2.67,17.22-4.65,19.69-2.66,1.24,1,1.42,4.12,1,17.86-.43,14.23-.83,17.34-2.73,21.39a38.21,38.21,0,0,0-2.24,5.35c0,1.07-5.42,11.82-8.89,17.63a32.58,32.58,0,0,0-4,10.84,43.33,43.33,0,0,1-2.74,9.91c-2.6,5.87-2.57,8.11.16,13.06,6,10.92,7.15,13.14,7.15,14,0,.53-.56.42-1.24-.25-2.11-2-2.81-1.36-1.87,1.82.69,2.35.56,3-.6,3-2.47,0-1.7,1.83,2.73,6.5,3.41,3.58,4,4.79,3.19,6.27-1.47,2.62-7.4,15.37-7.4,15.91,0,.25,2.88.59,6.41.75,4,.19,6.58.78,6.85,1.56.32.94-1.71,1.26-7.94,1.26-7.31,0-8.51.26-9.48,2s-.79,2,2.82,2c8.29,0,14.85,1.23,14.85,2.75,0,1-.54,1.25-1.82.7-1-.43-5.7-1-10.45-1.22-7.24-.37-9-.15-10.68,1.36-2.71,2.37-1.81,3,6.84,4.92,8,1.76,16.1,4.68,16.11,5.79,0,.74-9.7-1.81-12.62-3.31a33.61,33.61,0,0,0-7.63-1.55l-5.91-.68.34,2.88c.27,2.19,1.34,3.37,4.51,4.94,2.29,1.13,4.31,2.39,4.5,2.81a1.72,1.72,0,0,0,1.48.76c1.84,0,15.33,10.36,15.33,11.78,0,.72-2.92-1-6.5-3.77-5.69-4.45-16.39-11-17.92-11-.29,0-.53,3.91-.53,8.69,0,7.62-.2,8.54-1.56,7.44s-1.56-.91-1.56.81a45.88,45.88,0,0,0,1.24,7.25c1,4.2,1,5.35-.14,6a1.48,1.48,0,0,0-.59,2c.89,1.39,4.61,20.35,5.4,27.49.6,5.46-.8,6.32-3.29,2l-1.6-2.77.66,3.84c.71,4.16-1.4,15.82-2.86,15.82a1,1,0,0,1-.9-1c0-.56-.6-1-1.34-1-1.85,0-8.42,17-10.54,27.22-.54,2.56-5.29,10.35-10.77,17.64-3.71,4.94-7.61,15.28-7.49,19.82.15,5.09-2,40.38-3.11,51.24-.53,5.27-1.49,16.38-2.13,24.69s-1.42,17.51-1.74,20.42l-.6,5.29h4.89c5.79,0,8.32,1.13,12.66,5.64,3.29,3.43,7.72,14.2,7.65,18.62s-4.3,8.15-9.73,8.74-6.39,1.39-4.8,4.27c1.27,2.3,6.11,2.79,8.13.83,1-.93,2-.94,4.62,0a53.56,53.56,0,0,0,7.66,1.82c4.81.73,5.18.93,8.52,4.61,2.72,3,4.83,14,3.75,19.63a13,13,0,0,1-8.91,9.69l-1-2.28c.35,0,1.57-1.26,2.71-2.77,1.64-2.15,2.07-4.26,2-9.87-.07-8.13-2.64-13-7.55-14.24-3.49-.89-15.21-.88-24.1,0-6.09.63-6.43.57-3.46-.57,4.69-1.8,4.79-2.08,2.11-5.91C296.65,450,294,443,291.46,433.12c-2.34-9-2.72-25.42-.91-39.3.87-6.66,1.84-17.78,2.17-24.71s.86-16.46,1.17-21.17l.56-8.56-2.05,2.26c-1.13,1.25-2.8,2.27-3.71,2.27a1.82,1.82,0,0,0-1.37.56l-2.23-.31a18.45,18.45,0,0,1,3.11-4.08,26,26,0,0,0,3.51-2.8c2.67-2.4,2.81-3.06,3.66-17.34,1-16.24,3.25-24.46,12.22-44.07,3.48-7.6,4.59-11.82,6.87-26,1.49-9.31,3.18-17.78,3.76-18.83a15.69,15.69,0,0,0,1.14-5.75l.08-3.85,1.33,2.93,1.34,2.93.51-3.37a20.51,20.51,0,0,0-.23-6.51c-1.12-4.85-1.21-23.64-.12-27.13a57.65,57.65,0,0,0,1.55-7.08l.58-4-5.19,4.95c-3.35,3.2-5.6,6.39-6.34,9-1.33,4.64-2.46,3.12-1.47-2,.43-2.25,2.58-5.29,6.34-9,3.13-3.08,5.69-6.12,5.69-6.75s-.56-.7-1.72.22c-1.56,1.27-1.65,1-1-3.4.78-5.07-.28-6.23-2.71-3a34,34,0,0,1-6.3,5.08c-2.71,1.8-4.94,3.65-4.94,4.12,0,1.44-7.64,4.47-10.75,4.25-4-.28-8.8-2.73-13.16-6.77-4.11-3.81-2.74-4-17.12,2.83-9.06,4.33-11.78,6.43-7.72,6,.36,0,.91,2.47,1.24,5.57s1.1,6.12,1.7,6.71c1.36,1.31,1.43,2.68.15,2.68-.53,0-2-2.94-3.2-6.54s-2.68-6.8-3.22-7.12-3.12.83-5.76,2.55-5.08,2.86-5.44,2.51.05-1,.91-1.49,3-1.93,4.82-3.23c3.55-2.57,3.23-4-1.47-6.6-2.58-1.41-2.83-1-1.25,1.84,1.49,2.7-.43,2.53-3.13-.27l-2.13-2.22L235.82,182A113.41,113.41,0,0,0,219,192.06c-2.13,1.58-4.16,2.6-4.51,2.26s.27-1.3,1.37-2.13c5.3-4,16.22-10.74,19.57-12.1,4-1.63,4.4-2.46,2.57-5.78-3.09-5.59-3.92-5.84-11.3-3.34a125.08,125.08,0,0,0-12,4.87c-4.83,2.37-5.41,3.07-7.55,9-2.07,5.72-3.21,11-1.44,6.68,1.5-3.66,2.34-.9,2.83,9.29.28,5.82.88,16.25,1.33,23.18l0,.54-2.63.17c-.2-2.29-.54-5.21-1-9.28-1-7.76-1.88-14.3-2.08-14.54s-1,.44-1.87,1.51c-1.39,1.78-1.52,1.45-1.55-3.82,0-6.09,1.58-11.85,5.89-20.95,4-8.36,5.15-11.1,5.92-13.61l.15-.5a12.18,12.18,0,0,1,2.12-4.06c1.2-1.33.7-1.84-3.76-3.83a20.58,20.58,0,0,1-7.85-6c-2.14-3-2.54-3.21-1.94-1.21.42,1.39,2.83,5.17,5.36,8.42,3.19,4.08,4.45,6.42,3.77,6.42-.45,0-1.71-1-3.79-3.13-4-4.15-4.9-4.49-4.13-1.63.87,3.22-.41,2.34-2.94-2-1.29-2.21-2.91-4-3.62-4-2.28,0-10.45,9.21-14.3,16.11a64.43,64.43,0,0,0-5.44,14.21c-.93,4.12-2.54,11.34-3.57,16-2,9.19-4.42,16.34-6.16,18.39-9.43,11.06-11,11.54-4.86,1.52,7.68-12.61,6.94-13.51-3.25-4-5,4.65-11.84,10.53-15.3,13.08-12.12,8.92-16.82,15.32-24.58,33.48-7,16.39-10,35.88-7.22,46.36,2.08,7.72,5.18,17.85,6.64,21.67,1.85,4.87,10.2,21,11.26,21.7.41.3,2.21,3.7,4,7.56s3.62,7.73,4.08,8.58a26.64,26.64,0,0,1,1.53,6.05c.82,5.34-.49,3.84-3.05-3.47a76.78,76.78,0,0,0-6.22-12c-13.19-21-16.6-28-21.88-44.78-1.61-5.13-3.2-9.33-3.52-9.33a15.71,15.71,0,0,0-3.62,2.52,13.64,13.64,0,0,1-3.77,2.52c-1,0-10.36,8.72-10.36,9.63,0,.38.93.45,2.08.16,2.35-.6,2.81.78.68,2a34.58,34.58,0,0,0-4.94,4.79c-2,2.19-3,3.63-2.24,3.21,1.92-1.12,1.6,0-1.4,5-2.23,3.68-2.39,4.35-.88,3.79,2-.73,2-1.56,0,13.77-.25,1.94-.19,2.62.12,1.51,1.15-4,2.46-4,2.48,0a36.29,36.29,0,0,0,1,7.51c.51,1.94,1.93,7.16,3.14,11.59s2.63,9.92,3.14,12.19c1.4,6.26,6,16.72,8.71,19.67,4.63,5.12,8.48,5.11,15.52,0,8.63-6.3,21.2-11.71,18.93-8.14-1.11,1.74,1.62,1.1,4.86-1.13a12.6,12.6,0,0,1,5.88-2.14,19.25,19.25,0,0,0,6.78-2c4.28-2.11,17.37-5.12,18.31-4.22.31.3-.26,1.12-1.26,1.83-2.92,2.07-2.11,2.9,2.08,2.14,2.15-.39,7.58-1.1,12.07-1.59s8.37-1.07,8.62-1.31c.58-.57-3-15.58-5.83-24.38-1.24-3.88-3.14-10.23-4.22-14.11S177,338,175.78,333.83c-2-6.94-4.66-16.49-7.42-26.71a39,39,0,0,1-.43-11.09c.9-9.7.75-12.25-1.11-18.65-2.38-8.21-3.31-14.5-3.74-25.42-.37-9.37-.31-9.72,1.48-8.16,1.4,1.23,1.86,3.15,1.86,7.7A60.8,60.8,0,0,0,172.29,278c4,8.25,4,8.16,1.84,12.4-1.21,2.33-1.48,4.64-1,8.47.77,6.22,4.5,22.54,5.81,25.41a51.85,51.85,0,0,1,2,6.05c1.34,5.05,6.51,10.61,9.23,9.92,1.43-.36,2.3.32,3.26,2.57,2.1,4.91,3.93,5.84,5.39,2.74s1.77-3.23,6.4-.18c3.17,2.08,3.9,2.23,5,1a4.77,4.77,0,0,1,3.78-1.38l-.1,2.75L212,350a8.62,8.62,0,0,0-1.9,4.4c0,2.11-.05,2.12-1.18.13-3.29-5.76-8.14-8.46-8.14-4.53,0,1.53-.7,2-2.89,2s-3.32-.8-4.84-3.52c-1.1-2-2.76-3.53-3.8-3.53a5.86,5.86,0,0,1-3.47-1.59c-1.46-1.4-1.64-1.41-1.64,0a28.49,28.49,0,0,0,1.48,5.87,480.8,480.8,0,0,1,14.67,55.22c.84,4.16,2.21,10.51,3,14.11s1.8,8.78,2.17,11.51a86.87,86.87,0,0,0,3.74,13.61c1.7,4.76,3.35,9.9,3.67,11.43.8,3.79,1.71,4.1,4.9,1.67,2.2-1.68,2.72-1.78,2.72-.54,0,.85-1.55,2.26-3.46,3.13-4.63,2.13-6.93,7.07-6.93,14.86,0,4.77.53,7,2.34,9.53,3.47,4.95,5.37,4.44,4.57-1.24-.41-2.92-.28-4.37.38-4a3.83,3.83,0,0,1,1,2.89,7.77,7.77,0,0,0,1.62,4.22c1.49,1.81,1.58,1.46,1.09-4.59a51.61,51.61,0,0,1,.33-11.09c.83-4.38.87-4.29,1,2.62.2,10.57,2.79,16.53,7.19,16.53l0,2.57c-3.14-.05-5.27-.24-5.48-.58-.34-.54-2.68-1-5.2-1-5.69,0-11.37-2.53-12.87-5.73-1.74-3.69-1.41-19.55.45-21.93,2.14-2.74,1.93-4.92-1.31-13.79-2.78-7.62-2.91-7.77-6.9-8.39-5.76-.89-5.86-.64-2.2,5.49,1.79,3,2,11,.4,14.31-2.91,5.93-12,9.25-24.8,9.07a13.21,13.21,0,0,0-7.28,1.77c-8.51,5.85-23.32,12.14-28.61,12.14-.88,0-1.6.41-1.6.9s-2.2,1.9-4.9,3.13c-4.41,2-6.49,2.23-21,2.19C99.35,489.21,83.66,489.28,73.36,489.38ZM6.13,434.76c1,7.2,4.74,17.22,7.49,20.34.59.66,1.64,2,2.33,3,1,1.44,1.19-.59.9-10.33-.43-13.86,1.46-17.24,2.12-3.8.32,6.58,1,9.58,3.42,14.37,2.83,5.68,7,11.35,5.57,7.56-1.69-4.48-3.16-15.22-2.53-18.49.82-4.22,2.7-4.05,2.7.25,0,3.39,8.16,19.1,12,23l2.71,2.8L41.7,470.6a15.45,15.45,0,0,1-1.05-4.54c0-1.37.42-1.24,2.08.69a8.32,8.32,0,0,1,2,3.67c0,2.5,12.34,12.48,16.92,13.67,2.42.63,5.33,1.52,6.48,2a13.65,13.65,0,0,0,4.15.85c2,0,2,0,.15-1.19-8.8-5.46-11.25-7.22-15.53-11.15-6.68-6.11-6.16-7.66.87-2.62C66.75,478.36,82.37,485,88.43,485c1.87,0,1.71-.38-1.27-3.08-3.22-2.93-3.26-3.05-.8-2.41a48,48,0,0,1,6.24,2.33c4.52,2.05,28.37,2.35,31.71.4,1.89-1.1,1.75-1.22-1.56-1.25-7.22-.09-27.1-7-22.56-7.9a4.4,4.4,0,0,1,3.12.64c.69.55,5.77,1.57,11.3,2.26,12,1.52,22.28.33,26-3l2.32-2.09-11.37,0c-11.37,0-16.65-1.07-11.72-2.35a25.94,25.94,0,0,1,5-.68,21.29,21.29,0,0,0,6.76-2l4.16-2-7.06.11c-3.88.06-7.31-.14-7.62-.45s1.93-2.1,5-4a42.89,42.89,0,0,0,7-5.13c1.31-1.54.76-1.68-6.76-1.69-11.29,0-11.6-.3-9.59-8.45l1.62-6.57-5.83-1.1L103.78,435c-1.57-.29-2.86-.78-2.86-1.09a39,39,0,0,1,3.68-5.53l3.69-5-7.58.56c-5.46.41-6.76.3-4.62-.38a14.75,14.75,0,0,0,8.57-7.3,18.83,18.83,0,0,0,1.46-3.15c0-.23-2-.67-4.34-1a24.9,24.9,0,0,1-8.87-3.67c-3.21-2.2-6.13-3.19-8.84-3L84,403.32c2.6-.08,4.57-.33,4.85-.77S87.42,399.6,85,397c-4.53-4.85-12.93-9.76-16.74-9.79-3.14,0-5.38-1.53-3.73-2.51,1.88-1.13,12.24,1.56,16.3,4.23,4.44,2.92,4.51,2.91,3.5-.45-2.58-8.6-6.59-14.4-11.79-17L69.66,370l1.54,3.57c1.61,3.75.81,4.73-1.59,1.93s-8.63-6.17-14.47-7.85c-7.26-2.09-7.24-2.1-3,1.5l3.6,3.09-4.16-.6c-11.18-1.61-14-1.69-19.55-.58-3.28.65-5.72,1.56-5.43,2s2.75,1.16,5.47,1.58l4.95.76-3.64.92C23,379,16.09,383.89,10.6,392.55c-2.82,4.45-2.39,4.64,2.75,1.26,2.49-1.64,4.14-2.44,4.89-2.44,1,0,.41,1.46-2,4.27C7.82,405.65,4,420.29,6.13,434.76Zm312.5-324.24-.13-1c-.13-1-1-1-1.73-.45a1.6,1.6,0,0,0,1.09,3C318.88,112,318.5,111.5,318.63,110.52Zm-6,49.32c4.77-1.16,2.45-2.21-4.78-2.17-6.87,0-7.28.17-7.28,2.34s1.17,3.24,4.1,3.39c1.18.06,1.23-.19.26-1.13-2.16-2.1-1.36-3.1,2-2.45A16.39,16.39,0,0,0,312.62,159.84Z"/>
  <path transform="translate(-.23)" d="M18.43,389.18c-1.11-.18.36-1.63,4.58-3.93,3.85-2.1,6-2.51,13.08-2.52,4.66,0,8.26-.35,8-.77-.89-1.43,3.88-.75,6.71.94,4.69,2.83,14.65,13.1,15.36,15.85.49,1.88,1.7,2.86,4.46,3.6q.67.18,1.56.33l-.48,2.55a18,18,0,0,0-3-1.34c-3-.93-5.22-2.9-5.23-4.72,0-2.16-10.85-9.21-17.9-11.65-8.41-2.91-13.44-2.86-21.48.19C21.08,388.86,19.18,389.3,18.43,389.18Z"/>
  <path class="cls-2" transform="translate(-.23)" d="M16.85,447.75c.29,9.74.12,11.77-.9,10.33-.69-1-1.74-2.32-2.33-3C10.87,452,7.18,442,6.13,434.76,4,420.29,7.82,405.65,16.27,395.64c2.38-2.81,3-4.27,2-4.27l.19-2.19c.75.12,2.65-.32,5.67-1.47,8-3,13.07-3.1,21.48-.19,7.05,2.44,17.89,9.49,17.9,11.65,0,1.82,2.19,3.79,5.23,4.72a18,18,0,0,1,3,1.34,20.8,20.8,0,0,1,2.38,1.47c2.66,1.91,3,1.93,5.44.36a9.85,9.85,0,0,1,4.56-1.57c2.71-.19,5.63.8,8.84,3a24.9,24.9,0,0,0,8.87,3.67c2.39.31,4.34.75,4.34,1a18.83,18.83,0,0,1-1.46,3.15,14.75,14.75,0,0,1-8.57,7.3c-2.14.68-.84.79,4.62.38l7.58-.56-3.69,5a39,39,0,0,0-3.68,5.53c0,.31,1.29.8,2.86,1.09l8.68,1.64,5.83,1.1-1.62,6.57c-2,8.15-1.7,8.43,9.59,8.45,7.52,0,8.07.15,6.76,1.69a42.89,42.89,0,0,1-7,5.13c-3,1.89-5.29,3.69-5,4s3.74.51,7.62.45l7.06-.11-4.16,2a21.29,21.29,0,0,1-6.76,2,25.94,25.94,0,0,0-5,.68c-4.93,1.28.35,2.34,11.72,2.35l11.37,0L140.58,473c-3.69,3.34-13.94,4.53-26,3-5.53-.69-10.61-1.71-11.3-2.26a4.4,4.4,0,0,0-3.12-.64c-4.54.86,15.34,7.81,22.56,7.9,3.31,0,3.45.15,1.56,1.25-3.34,2-27.19,1.65-31.71-.4a48,48,0,0,0-6.24-2.33c-2.46-.64-2.42-.52.8,2.41,3,2.7,3.14,3.08,1.27,3.08-6.06,0-21.68-6.67-30.62-13.07-7-5-7.55-3.49-.87,2.62,4.28,3.93,6.73,5.69,15.53,11.15,1.86,1.15,1.85,1.2-.15,1.19a13.65,13.65,0,0,1-4.15-.85c-1.15-.46-4.06-1.35-6.48-2-4.58-1.19-16.92-11.17-16.92-13.67a8.32,8.32,0,0,0-2-3.67c-1.66-1.93-2.06-2.06-2.08-.69a15.45,15.45,0,0,0,1.05,4.54l1.09,2.84-2.71-2.8c-3.79-3.9-11.95-19.61-11.95-23,0-4.3-1.88-4.47-2.7-.25-.63,3.27.84,14,2.53,18.49,1.44,3.79-2.74-1.88-5.57-7.56C20,453.53,19.29,450.53,19,444,18.31,430.51,16.42,433.89,16.85,447.75Z"/>
  <path class="cls-4" transform="translate(-.23)" d="M287.32,344.47a1.82,1.82,0,0,1,1.37-.56c.91,0,2.58-1,3.71-2.27l2.05-2.26-.56,8.56c-.31,4.71-.84,14.24-1.17,21.17s-1.3,18.05-2.17,24.71c-1.81,13.88-1.43,30.26.91,39.3,2.56,9.92,5.19,16.91,7.75,20.56,2.68,3.83,2.58,4.11-2.11,5.91-3,1.14-2.63,1.2,3.46.57,8.89-.91,20.61-.92,24.1,0,4.91,1.25,7.48,6.11,7.55,14.24.05,5.61-.38,7.72-2,9.87-1.14,1.51-2.36,2.76-2.71,2.77"/>
  <path class="cls-4" transform="translate(-.23)" d="M287.32,344.47a1.06,1.06,0,0,0-.28.71c0,1.27-4.77,6.8-5.86,6.8a12.82,12.82,0,0,1-3.14-2c-1.41-1.08-3.13-1.73-3.8-1.45s-3.58,3.62-6.44,7.41c-3.93,5.21-5.52,6.63-6.52,5.83-.73-.58-1.63-.75-2-.39s-.1,7.58.61,16,1.68,20.83,2.17,27.52c2.1,28.78,2.33,30.48,4.51,33.89l2.13,3.34.7-2.52c.64-2.28.78-2.13,1.44,1.51a25.53,25.53,0,0,0,1.55,5.55,46.21,46.21,0,0,1,2.16,7,30.36,30.36,0,0,0,2.12,6.55c.43.56,1.12,3.4,1.52,6.31.52,3.73,1.4,5.75,2.95,6.81,2.83,1.92,4.22,1.91,3.45,0-.35-.9,0-1.51.86-1.51,1.54,0,2.05,1.2,3.1,7.24,1.17,6.72,9.56,10.9,16.61,8.27,1.19-.44,1.65-2,1.65-5.54,0-2.72.46-4.93,1-4.93s1.05,1.7,1.07,3.78c0,3.14.21,3.47,1.13,1.95,1.19-2,.8-12.06-.6-15.31-.83-1.94-.79-1.95,1.11-.22,1.6,1.47,1.94,3.16,1.85,9.08a82.45,82.45,0,0,1-.52,9.28c-.32,1.59.15,2,2.18,2,2.3,0,2.67-.54,3.31-4.89.93-6.31,1.9-7.21,1.9-1.77,0,2.58.41,4,1,3.64s1.06-4.12,1.07-8.38c0-6.1.28-7.35,1.17-5.86.68,1.14.94,4.89.65,9.33-.27,4.08-.15,7.43.27,7.43.91,0,2-3.66,2-6.75a3.8,3.8,0,0,1,1.2-2.92c.85-.51,1,.75.67,4.48-.28,2.85-.23,5.17.11,5.15"/>
  <path class="cls-4" transform="translate(-.23)" d="M305.19,438.66l-1.41-4.53.21,5.51c.17,4.54-.11,5.57-1.62,5.87-2.1.41-1.93.78-5.41-12.13-3.73-13.89-3.68-14.29,1.77-13.44,5,.77,8.22,3.3,11.7,9.15,3,5.09,4.11,10,2.71,12.31-.88,1.45-1.11.93-1.25-2.74l-.17-4.53-.69,4.74c-.93,6.47-1.91,7-1.91,1,0-4.74-3.25-13.11-4.12-10.62a5,5,0,0,0,.69,3.21,15.93,15.93,0,0,1,1,6.36l-.1,4.35Z"/>
  <path class="cls-4" transform="translate(-.23)" d="M213.83,347.73l3.86,3.74c4.71,4.57,4.35,3.13,6.94,27.72,1.08,10.24,2.33,17.4,5.81,33.26.91,4.16,2.26,13.23,3,20.16,1.07,10,1.92,13.66,4.08,17.64a39.3,39.3,0,0,1,2.73,5.74c0,.38-1.76.84-3.9,1-2.5.21-.64.62,5.19,1.16,8.45.77,9.33,1.07,12.66,4.3a26.25,26.25,0,0,1,5.86,10.12c2.14,6.23,2.18,6.86.64,10a11.55,11.55,0,0,1-3.92,4.52c-2.24,1.16-2.26,1.1-1.57-4,.46-3.32.32-5.16-.37-5.16s-1.07,1.5-1.07,3.34c0,2.7-2.75,8.55-3.17,6.74-.07-.27-.34-4-.61-8.35-.76-12.41-2.32-14-2.4-2.52-.05,8.61-.3,9.92-2.07,10.84-3.52,1.82-4.23,1.19-4.25-3.75,0-2.63-.47-5.47-1-6.3-.74-1.11-1-.45-1,2.52a13.44,13.44,0,0,1-1,5.55c-.7,1-1-1-1.13-6.55-.18-12.58-1.76-14.94-1.89-2.84-.11,11.11-1.55,14.49-2.7,6.37-1.07-7.58-3-7.7-2.09-.14.59,5,.45,6.18-.73,6.18-4.4,0-7-6-7.19-16.53-.12-6.91-.16-7-1-2.62a51.61,51.61,0,0,0-.33,11.09c.49,6.05.4,6.4-1.09,4.59a7.77,7.77,0,0,1-1.62-4.22,3.83,3.83,0,0,0-1-2.89c-.66-.39-.79,1.06-.38,4,.8,5.68-1.1,6.19-4.57,1.24-1.81-2.56-2.34-4.76-2.34-9.53,0-7.79,2.3-12.73,6.93-14.86,1.91-.87,3.46-2.28,3.46-3.13,0-1.24-.52-1.14-2.72.54-3.19,2.43-4.1,2.12-4.9-1.67-.32-1.53-2-6.67-3.67-11.43A86.87,86.87,0,0,1,205.46,430c-.37-2.73-1.34-7.9-2.17-11.51s-2.2-9.95-3-14.11a480.8,480.8,0,0,0-14.67-55.22,28.49,28.49,0,0,1-1.48-5.87c0-1.38.18-1.37,1.64,0a5.86,5.86,0,0,0,3.47,1.59c1,0,2.7,1.54,3.8,3.53,1.52,2.72,2.62,3.52,4.84,3.52s2.89-.48,2.89-2c0-3.93,4.85-1.23,8.14,4.53,1.13,2,1.15,2,1.18-.13A8.62,8.62,0,0,1,212,350Z"/>
  <path class="cls-4" transform="translate(-.23)" d="M260.61,438.41c.41,1.95.07,2.24-2.4,2.08l-11.2-.75-8.32-.57-.52-8.07c-.47-7.32-.31-8.27,1.77-10.33s3.38-2.27,10-2.27h7.73l.6,3.28c.33,1.8.88,5.77,1.22,8.82S260.35,437.16,260.61,438.41Z"/>
  <path class="cls-4" transform="translate(-.23)" d="M191.57,448.42c2.35,5.15,1.83,9.63-1.52,13.17s-3.82,2.82-3.28-3c.35-3.8.21-4.72-.5-3.28a14,14,0,0,0-1.05,4.79c0,1.53-.6,2.77-1.25,2.77s-1-1.85-.68-5.61c.46-5.47.41-5.59-1.95-5-3.33.81-3-.22,1.65-5.37S188.63,442,191.57,448.42Z"/>
  <path class="cls-4" transform="translate(-.23)" d="m180.4 461.22c-0.79 3-2 3.41-3 0.91a2.5 2.5 0 0 1 1.11 -3c2.31-1.65 2.74-1.13 1.89 2.09z"/>
  <path class="cls-4" transform="translate(-.23)" d="M174.23,462.85c1.27-1,1.56-1,1.56.39a1.61,1.61,0,0,1-1.56,1.63c-.86,0-1.56-.17-1.56-.38A5.34,5.34,0,0,1,174.23,462.85Z"/>
 </g>
</svg>
